<?xml version="1.0" encoding="utf-8"?>
<!-- Generator: Adobe Illustrator 27.5.0, SVG Export Plug-In . SVG Version: 6.00 Build 0)  -->
<svg version="1.1" id="Ebene_1" xmlns="http://www.w3.org/2000/svg" xmlns:xlink="http://www.w3.org/1999/xlink" x="0px" y="0px"
	 viewBox="0 0 393.9 104.5" style="enable-background:new 0 0 393.9 104.5;" xml:space="preserve">
<style type="text/css">
	.st0{fill:#171717;}
	.st1{fill:#E80036;}
	.st2{fill:#5A0F09;}
	.st3{fill:#1D1D1B;}
	.st4{fill:#FFFFFF;}
	.st5{fill:#40B945;}
	.st6{fill:#BD2298;}
	.st7{fill-rule:evenodd;clip-rule:evenodd;fill:#3A9EBF;}
</style>
<g id="uuid-231f0271-37f8-473e-a486-9c665c9e2010">
	<g id="uuid-20cb68c1-648d-4385-991e-33f264f7a93d">
		<path id="uuid-84189cef-ace9-44d8-8ec8-b8250a681bc8" class="st0" d="M306.8,104.9V0h0.3v104.9H306.8 M314.2,85.6
			c0.5,1.7,1.5,2.4,3.2,2.4c1.5,0,2.8-0.9,2.8-2.4c0-1.3-0.5-1.9-3.1-2.9c-1.7-0.6-1.8-1.1-1.8-1.7c0-1.1,0.7-1.7,1.8-1.7
			c1,0,2,0.7,2.2,1.7l0.7-0.2c-0.3-1.3-1.5-2.2-2.9-2.2c-1.7,0-2.6,1-2.6,2.3c0,3,4.9,2,4.9,4.5c0.1,0.9-0.6,1.7-1.5,1.8
			c-0.1,0-0.2,0-0.3,0c-1.4,0-2.2-0.6-2.6-2L314.2,85.6L314.2,85.6L314.2,85.6z M327.4,87.9v-0.7h-4.6v-3.7h3.1v-0.7h-3.1v-3.3h4.3
			v-0.7H322v9.1L327.4,87.9L327.4,87.9z M329.1,87.9h0.8v-9h-0.8V87.9L329.1,87.9L329.1,87.9z M331.6,79.5h2.7v8.4h0.8v-8.4h2.7
			v-0.7h-6.2L331.6,79.5L331.6,79.5L331.6,79.5z M346.2,87.9v-0.7h-1.5v-8.5h-0.5l-2,0.7v0.5l1.7-0.3v7.6h-1.6v0.7L346.2,87.9
			L346.2,87.9z M347.1,86.2c0.5,1.2,1.6,1.8,3.1,1.8c1.8,0,3.1-0.8,3.1-2.7c0-1.2-0.7-1.9-1.7-2.3c1.1-0.5,1.5-1.1,1.5-2.1
			c0-1.7-1.6-2.2-2.7-2.2c-1.1,0-2.1,0.5-2.7,1.4l0.6,0.4c0.6-0.8,1.2-1.2,2.1-1.2c1.2,0,2,0.5,2,1.6c0,1.2-0.9,1.8-2.5,1.8H349v0.7
			h0.8c1.7,0,2.6,0.6,2.6,1.9s-0.7,2-2.2,2c-1.1,0.1-2.1-0.5-2.4-1.5L347.1,86.2L347.1,86.2L347.1,86.2z M358,78.7
			c-1.7,0-2.8,0.8-2.8,2.3c0,1,0.6,1.7,1.7,2.1c-1.6,0.7-2.1,1.5-2.1,2.4c0,1.8,1.3,2.5,3.2,2.5s3.2-0.7,3.2-2.5
			c0-0.9-0.5-1.7-2.1-2.4c1.1-0.4,1.7-1.1,1.7-2.1C360.8,79.5,359.7,78.7,358,78.7L358,78.7L358,78.7z M355.6,85.6
			c0-1,0.9-1.5,2.4-2.1c1.5,0.6,2.4,1.1,2.4,2.1c0,1.2-1,1.8-2.4,1.8S355.6,86.8,355.6,85.6z M356,81c0-1.1,0.8-1.6,2-1.6
			s2,0.5,2,1.6c0,1-0.9,1.5-2,1.8C356.8,82.5,356,81.9,356,81z M368.2,79.5c-0.6-0.5-1.4-0.8-2.1-0.8c-2.6,0-3.6,2.7-3.6,5
			c0,2.1,0.6,4.3,3.1,4.3c1.6,0,3.1-1.1,3.1-2.8s-1.1-3-2.9-3c-0.9,0-1.8,0.5-2.4,1.2c0-1.7,0.7-4,2.8-4c0.7-0.1,1.3,0.2,1.8,0.7
			L368.2,79.5L368.2,79.5L368.2,79.5z M367.8,85.1c0,1.4-0.8,2.3-2.2,2.3s-2.3-1-2.3-2.7c0-0.3,0.9-1.8,2.3-1.8
			c1.1-0.1,2.1,0.8,2.2,1.9C367.8,84.9,367.8,85,367.8,85.1L367.8,85.1L367.8,85.1z M314.7,66.3h4.3l-4.7,7.7v0.7h5.8V74h-4.8
			l4.7-7.7v-0.7h-5.4L314.7,66.3L314.7,66.3z M322,65.6v6.1c0,2.1,1.1,3.1,3.3,3.1s3.3-1,3.3-3.1v-6.1h-0.8v6.2
			c0,1.7-0.8,2.3-2.5,2.3s-2.5-0.6-2.5-2.3v-6.2L322,65.6L322,65.6z M331.1,74.7h0.8v-3l1.7-2l2.9,5h0.9l-3.3-5.6l2.9-3.5h-1
			l-4.1,4.9v-4.9h-0.8L331.1,74.7L331.1,74.7z M338.8,65.6v6.1c0,2.1,1.1,3.1,3.3,3.1s3.3-1,3.3-3.1v-6.1h-0.8v6.2
			c0,1.7-0.8,2.3-2.5,2.3s-2.5-0.6-2.5-2.3v-6.2L338.8,65.6L338.8,65.6z M347.8,74.7h0.8v-8.4l4.9,8.4h0.9v-9.1h-0.8v7.6h0l-4.3-7.6
			h-1.4L347.8,74.7L347.8,74.7L347.8,74.7z M357.7,74.7v-4.4h3.3v-0.7h-3.3v-3.3h4.5v-0.7h-5.3v9.1
			C356.9,74.7,357.7,74.7,357.7,74.7z M363,66.3h2.7v8.4h0.8v-8.4h2.7v-0.7H363L363,66.3L363,66.3L363,66.3z M316.2,61.6v-4h3.6v4.1
			h1.8v-9.5h-1.8v3.8h-3.6v-3.8h-1.8v9.5L316.2,61.6z M330.2,61.6V60h-4.6v-2.7h3.2v-1.5h-3.2v-2.3h4.5v-1.5h-6.3v9.5L330.2,61.6
			L330.2,61.6z M333.8,61.6v-9.5H332v9.5L333.8,61.6z M336.1,61.6h3.1c2.5,0,4.2-1.4,4.2-4.7s-1.7-4.7-4.2-4.7h-3.1V61.6L336.1,61.6
			z M337.9,53.6h1.2c2.1,0,2.6,1.5,2.6,3.2s-0.5,3.2-2.6,3.2h-1.2V53.6L337.9,53.6z M351.4,61.6V60h-4.6v-2.7h3.2v-1.5h-3.2v-2.3
			h4.5v-1.5H345v9.5L351.4,61.6L351.4,61.6z M358.8,61.6V60h-4.1v-7.9h-1.8v9.5L358.8,61.6L358.8,61.6z M360.2,61.6h3.5
			c2.4,0,3.4-1,3.4-2.5s-0.4-2-1.7-2.5c0.9-0.3,1.5-1.2,1.4-2.1c-0.1-1.7-1.3-2.3-3.2-2.3h-3.5L360.2,61.6L360.2,61.6L360.2,61.6z
			 M362,57.3h1.8c1.1,0,1.5,0.5,1.5,1.4s-0.5,1.4-1.5,1.4H362V57.3L362,57.3z M362,53.6h1.8c0.9,0,1.3,0.5,1.3,1.2s-0.4,1.2-1.3,1.2
			H362V53.6L362,53.6L362,53.6z M375.4,61.6V60h-4.6v-2.7h3.2v-1.5h-3.2v-2.3h4.5v-1.5H369v9.5L375.4,61.6L375.4,61.6z M378.7,61.6
			v-3.9h1.6l1.8,3.9h2l-2.1-4.2c1.1-0.3,1.8-1.3,1.7-2.4c0-1.6-0.9-2.8-3-2.8h-3.8v9.5H378.7z M378.7,53.6h1.7c1,0,1.5,0.4,1.5,1.3
			s-0.4,1.3-1.9,1.3h-1.3L378.7,53.6L378.7,53.6L378.7,53.6z M392.4,54.4c-0.4-1.5-1.9-2.5-3.4-2.4c-3,0-4,2.6-4,5
			c0,2.7,1.2,4.7,3.8,4.7c1,0.1,1.9-0.4,2.5-1.1v1h1.3v-4.8H389v1.5h1.8c0,1-0.8,1.9-1.9,1.9c0,0-0.1,0-0.1,0c-1.3,0-2-1.3-2-3.3
			c0-2.1,0.7-3.4,2-3.4c0.9,0,1.5,0.4,1.9,1.3L392.4,54.4L392.4,54.4L392.4,54.4z M319.8,44.5c0,1.5-0.6,2.1-1.8,2.1
			s-1.8-0.5-1.8-2.1v-6h-1.8v5.9c0,2.8,1.7,3.7,3.6,3.7s3.6-0.9,3.6-3.7v-5.9h-1.8L319.8,44.5L319.8,44.5L319.8,44.5z M325.5,48
			v-6.7h0l3.9,6.7h1.7v-9.5h-1.7V45h0l-3.7-6.5h-1.9V48L325.5,48L325.5,48z M335.3,48v-9.5h-1.8V48L335.3,48z M339.2,48h2l2.5-9.5
			h-1.8l-1.8,7h0l-1.7-7h-1.8L339.2,48L339.2,48L339.2,48z M351.4,48v-1.5h-4.6v-2.7h3.2v-1.5h-3.2v-2.3h4.5v-1.5H345V48L351.4,48
			L351.4,48z M354.7,48v-3.9h1.6L358,48h2l-2.1-4.2c1.1-0.3,1.8-1.3,1.7-2.4c0-1.6-0.9-2.8-3-2.8h-3.8V48L354.7,48L354.7,48z
			 M354.7,40h1.7c1,0,1.5,0.4,1.5,1.3s-0.4,1.3-1.9,1.3h-1.3L354.7,40L354.7,40L354.7,40z M367.8,40.6c-0.6-1.3-1.9-2.2-3.3-2.1
			c-1.6,0-3.1,1-3.1,2.7c0,2.9,4.9,2.5,4.9,4.4c0,0.9-0.7,1.3-1.6,1.3c-1.1,0-1.6-0.6-2.1-1.5l-1.5,0.7c0.6,1.4,2,2.3,3.5,2.2
			c2.1,0,3.3-1,3.3-2.9c0-3.1-4.9-2.7-4.9-4.4c0-0.7,0.6-1,1.3-1c0.8,0,1.5,0.5,1.7,1.2L367.8,40.6L367.8,40.6L367.8,40.6z
			 M371.7,48v-9.5h-1.8V48L371.7,48L371.7,48z M373.3,38.5v1.5h2.5V48h1.8v-7.9h2.5v-1.5L373.3,38.5L373.3,38.5z M383.6,40.4
			L383.6,40.4l1.1,4.1h-2.2L383.6,40.4L383.6,40.4L383.6,40.4z M379.8,48h1.8l0.6-2h3l0.5,2h1.8l-2.7-9.5h-2.2L379.8,48L379.8,48
			L379.8,48z M381.6,36.4v1.5h1.6v-1.5L381.6,36.4z M384,36.4v1.5h1.6v-1.5L384,36.4z M387.1,38.5v1.5h2.5V48h1.8v-7.9h2.5v-1.5
			L387.1,38.5z"/>
		<circle id="uuid-b859d5b6-aee0-402c-9829-1f933978055f" class="st1" cx="247.4" cy="52.1" r="52"/>
		<path id="uuid-c9f20971-3323-403f-b758-d919dbf065ce" class="st2" d="M241.7,24.7h0.6v-0.6h0.6v-0.6h-0.6v-0.6h-0.6v0.6h-0.6v0.6
			h0.6V24.7z M251.8,57.9h0.6v-0.5h0.5v-0.6h-0.5v-0.5h-0.6v0.5h-0.5v0.6h0.5V57.9z M239.5,24.7h0.6v-0.6h0.6v-0.6h-0.6v-0.6h-0.5
			v0.6H239v0.6h0.6L239.5,24.7L239.5,24.7z M252.3,75c0.6,4.1,0.8,8,1.2,10.1l0.6-0.1c-0.4-1.9-0.6-5.8-1.2-10
			C252.9,74.9,252.3,75,252.3,75z M246.6,52.2c-0.5-0.2-1.1,0-1.4,0.4l0.2,0.2c0.2-0.3,0.5-0.4,0.8-0.4c0.5,0,0.8,0.4,0.9,0.8v0.7
			h0.3v-0.7C247.3,52.8,247,52.4,246.6,52.2C246.6,52.2,246.6,52.2,246.6,52.2z M248.3,52.2c-0.4,0.2-0.7,0.6-0.7,1v0.7h0.3v-0.7
			c0-0.5,0.4-0.8,0.9-0.8c0.3,0,0.6,0.2,0.8,0.4l0.2-0.2C249.4,52.2,248.8,52,248.3,52.2L248.3,52.2L248.3,52.2z M248.8,52.8
			c-0.5,0-0.7,0.2-0.7,0.4h0.6c-0.1,0-0.1,0.1-0.1,0.2c0,0.1,0.1,0.2,0.2,0.2c0.1,0,0.2-0.1,0.2-0.2c0-0.1,0-0.1-0.1-0.2h0.6
			C249.4,53,249.1,52.8,248.8,52.8L248.8,52.8L248.8,52.8z M260,34.9l-0.6-0.9l-0.6,0.9l0.6,0.9L260,34.9z M259.4,55.1
			c0.8,0,1.4-0.6,1.4-1.4c0-0.8-0.6-1.4-1.4-1.4c-0.8,0-1.4,0.6-1.4,1.4C258,54.5,258.6,55.1,259.4,55.1L259.4,55.1z M259.4,52.6
			c0.6,0,1.1,0.5,1.1,1.1s-0.5,1.1-1.1,1.1c-0.6,0-1.1-0.5-1.1-1.1C258.3,53.1,258.8,52.6,259.4,52.6
			C259.4,52.6,259.4,52.6,259.4,52.6L259.4,52.6L259.4,52.6z M259.1,54.5h0.6V54h0.5v-0.6h-0.5V53h-0.6v0.5h-0.5V54h0.5V54.5z
			 M249.1,24.7h0.6v-0.6h0.6v-0.6h-0.6v-0.6h-0.6v0.6h-0.6v0.6h0.6V24.7L249.1,24.7z M247.2,24.7h0.6v-0.6h0.6v-0.6h-0.6v-0.6h-0.6
			v0.6h-0.6v0.6h0.6L247.2,24.7L247.2,24.7z M245.1,24.7h0.6v-0.6h0.6v-0.6h-0.6v-0.6h-0.6v0.6h-0.6v0.6h0.6L245.1,24.7L245.1,24.7z
			 M246.2,52.8c-0.5,0-0.7,0.2-0.7,0.4h0.6c-0.1,0-0.1,0.1-0.1,0.2c0,0.1,0.1,0.2,0.2,0.2c0.1,0,0.2-0.1,0.2-0.2
			c0-0.1-0.1-0.1-0.1-0.2h0.6C246.8,53,246.6,52.8,246.2,52.8L246.2,52.8z M251.5,73.3c0-0.2,0-0.3-0.1-0.5
			c-0.1-0.2-0.2-0.3-0.4-0.3c-0.2,0-0.4,0.1-0.5,0.3c-0.1,0.1-0.3,0.3-0.4,0.4c-0.5,0.5-1.2,0.8-1.9,0.8c-0.6,0-1.2-0.2-1.6-0.6
			c-0.3-0.3-0.6-0.5-1-0.5c-0.2,0-0.4,0.2-0.5,0.4c-0.1,0.2-0.1,0.5-0.1,0.7V74c0,0.2,0.1,0.8,0.3,1.7c0.2,1.3,0.6,3.3,1,5
			c0.2,0.9,0.4,1.7,0.6,2.3c0.1,0.5,0.3,1,0.6,1.5c0.2,0.4,0.6,0.6,1.1,0.6c0.6,0,1.1-0.5,1.2-1.1c0.1-0.5,0.9-3.7,1.4-6.6
			c0,0,0,0,0,0c0.1-0.9,0.3-1.7,0.4-2.4c0.1-0.5,0.1-1,0.1-1.5C251.5,73.4,251.5,73.3,251.5,73.3L251.5,73.3z M249.1,83.9
			c-0.1,0.5-0.4,0.7-0.7,0.7c-0.2,0-0.5-0.2-0.6-0.4c-0.1-0.1-0.1-0.2-0.2-0.3c0.8-0.9,1.5-1.9,2-3l0.2-0.3
			C249.4,82.2,249.1,83.6,249.1,83.9L249.1,83.9L249.1,83.9z M249.1,80.6c-0.4,1-1,1.9-1.7,2.7c-0.1-0.3-0.2-0.7-0.4-1.2v0
			c1.4-1.2,2.5-2.7,3.2-4.4C250,78.7,249.6,79.7,249.1,80.6L249.1,80.6z M250.8,74.8c-0.7,2.5-2,4.8-3.9,6.7c-0.3-1.4-0.7-3-1-4.4
			s-0.5-2.6-0.5-3c0.4,1.2,1.1,2.4,2,3.2l0.4-0.4c-0.4-0.3-0.7-0.7-1-1.2c0.3,0.1,0.6,0.1,0.9,0.1c0.9,0,1.8-0.3,2.6-0.9l-0.4-0.4
			c-0.6,0.5-1.4,0.7-2.1,0.7c-0.5,0-1-0.1-1.4-0.4c-0.2-0.4-0.3-0.8-0.4-1.2l0.2,0.2c0.6,0.4,1.3,0.7,2,0.7c0.9,0,1.7-0.3,2.3-0.9
			c0.2-0.2,0.3-0.3,0.4-0.4l0.1-0.1v0.3C250.9,73.9,250.8,74.4,250.8,74.8L250.8,74.8L250.8,74.8z M243.1,73
			c-0.5,2.9-1,7.4-3.1,11.3l0.5,0.3c2.2-3.9,2.7-8.6,3.1-11.4C243.7,73.1,243.1,73,243.1,73z M243.7,79c-0.1,2.4-0.4,4.8-1.3,5.9
			l0.4,0.4c1.1-1.3,1.4-3.8,1.5-6.2s0-4.8,0.4-5.8l-0.5-0.2C243.7,74.3,243.8,76.6,243.7,79L243.7,79L243.7,79z M246.2,15.3
			l-0.6-0.9l-0.6,0.9l0.6,0.9C245.7,16.2,246.2,15.3,246.2,15.3z M260.9,6l-1.3-0.4l-0.4,1.4l-1.4-0.4l-0.4,1.2l1.4,0.4l-0.4,1.4
			l1.3,0.4l0.4-1.4l1.4,0.4l0.4-1.3l-1.4-0.4C260.5,7.4,260.9,6,260.9,6z M269.3,44l-0.6-0.9l-0.6,0.9l0.6,0.9L269.3,44L269.3,44z
			 M294.2,44.9l0,0.4l-3.2,0.4c-0.1,0-0.2,0-0.3-0.1h0c-0.1,0.5-0.3,0.9-0.6,1.3l1,0.7l0.1-0.1c-0.3-0.2-0.2-0.4,0-0.9l3.2-0.4
			l0.1,0.7L295,47l-0.1-0.9l1.4-0.2v-0.1c-0.7-0.1-1.3-0.5-1.8-1L294.2,44.9L294.2,44.9z M294.9,36l-1.2-0.4
			c-0.1,0.1-0.2,0.1-0.3,0.2c0.3,0.3,0.7,0.5,1,0.7C294.6,36.3,294.7,36.2,294.9,36L294.9,36L294.9,36z M263.9,67.6v0.5l1.3-0.8
			l0.5,0.7l-1.5,1.2l0.3,0.4l1.6-1.2l0.4,0.4l-0.6,0.5l0.3,0.3l1-0.8l-0.5-0.5l0.9-0.8l-0.4-1.2l0.3-0.2v-0.3h-0.8l0.4,1.5l-0.3,0.2
			l-0.5-0.7v-1.4H265v0.4l0.3,0.3l-0.3,0.2l-0.8-0.9h-0.4v0.2l1,1.2L263.9,67.6L263.9,67.6z M263.7,44l0.6,0.9l0.6-0.9l-0.6-0.9
			L263.7,44z M294.7,48.5l-3.3,0.2c-0.3,0-0.3-0.1-0.3-0.1h0l-0.6,0.9l0.7,0.6h0c0-0.2,0.1-0.3,0.2-0.5l3.4-0.2c0.1,0,0.2,0,0.3,0.1
			h0l0.6-0.8c-0.3-0.2-0.5-0.4-0.7-0.7h0C294.9,48.1,295,48.5,294.7,48.5L294.7,48.5L294.7,48.5z M289.4,39.2L289.4,39.2
			c-0.1,0.5-0.2,0.9-0.4,1.4l1.1,0.6l0.1-0.2c-0.4-0.2-0.3-0.4-0.2-0.9l3.1-0.9l0.2,0.7l0.5,0.1l-0.2-0.9l1.3-0.4l0-0.1
			c-0.7,0-1.3-0.3-1.9-0.7l-0.2,0l0.1,0.4l-3.1,0.9C289.6,39.3,289.5,39.3,289.4,39.2L289.4,39.2L289.4,39.2z M290.7,45L290.7,45
			c0-0.2,0-0.5,0.1-0.5l3.4-0.7c0.1,0,0.2,0,0.3,0.1h0c0-0.4,0.1-0.8,0.1-1.2c-0.6-0.2-0.8-1.4-1.6-1.3l-2.7,0.5
			c-0.1,0-0.2,0-0.3-0.1h0l-0.5,1.1l0.7,0.6l-0.4,0.9C290.2,44.7,290.4,44.8,290.7,45L290.7,45L290.7,45z M290.5,42.9l3.4-0.7
			c-0.1,0.3-0.1,0.5-0.1,0.8l-3.1,0.6l-0.3-0.3L290.5,42.9L290.5,42.9z M292.9,53.6c0.1,0,0.2,0.1,0.2,0.1h0l0.5-0.9l1.3,0.9
			c0.2-0.4,0.5-0.8,0.8-1.1c-0.3-0.5-0.5-1-0.6-1.6l-1.4,0c-0.1,0-0.2-0.1-0.3-0.2h0l-0.6,1.1l-1.6-1.1c-0.1,0.4-0.4,0.8-0.6,1.2
			c0.3,0.5,0.6,1,0.8,1.5L292.9,53.6L292.9,53.6z M293.7,52l1.5,0l0,0.1c-0.3,0.3-0.6,0.7-0.8,1.1l-1-0.7L293.7,52L293.7,52z
			 M291.1,52.6c0.3-0.3,0.5-0.7,0.7-1.1l1.3,0.9l-0.2,0.4l-1.7,0L291.1,52.6L291.1,52.6z M277.8,44.8l0.6-0.9l-0.6-0.9l-0.6,0.9
			L277.8,44.8z M240.2,100.6c0,0.2,0.1,0.4,0.2,0.6l0.9-0.8V100C241,100.2,240.6,100.4,240.2,100.6L240.2,100.6L240.2,100.6z
			 M272.7,44l0.6,0.9l0.6-0.9l-0.6-0.9L272.7,44z M239.6,98.4c0-0.2,0.6-3,0.6-3.3s0.2-0.3,0.2-0.3v0l-0.7-0.8l-0.8,0.5v0
			c0.2,0,0.3,0.1,0.4,0.3c0,0-0.6,3.1-0.6,3.3c0,0.1-0.1,0.2-0.2,0.2v0l0.7,0.8c0.2-0.2,0.5-0.4,0.8-0.5v0
			C240,98.7,239.5,98.7,239.6,98.4L239.6,98.4L239.6,98.4z M245.6,99.2c0,0,0.2-3,0.3-3.2c0-0.1,0.1-0.2,0.2-0.3v0l-1.1-0.9
			l-1.6,0.9l-0.3,3.5c0,0.1-0.1,0.2-0.2,0.2v0c0.9,0.7,1.6,1.3,2.5,2.1c0.2-0.3,0.5-0.5,0.7-0.7v0c-0.2,0-1.5-1.2-1.5-1.2
			L245.6,99.2L245.6,99.2z M243.9,99.1l0.3-3.8h0l0.7,0.5l-0.3,3.6l-0.2,0.1L243.9,99.1L243.9,99.1z M241,94.9L241,94.9
			c0.2,0.1,0.3,0.2,0.4,0.3c0,0-0.5,3.2-0.5,3.3c0,0.1-0.1,0.2-0.2,0.2v0l0.7,0.8c0.2-0.2,0.5-0.4,0.8-0.6v0c0,0-0.5-0.1-0.4-0.3
			c0-0.2,0.4-3,0.5-3.3s0.2-0.3,0.2-0.3v0l-0.7-0.7L241,94.9L241,94.9z M249.5,95.8c0-0.1,0-0.2,0.1-0.3v0l-1.1-0.7
			c-0.5,0.4-1,0.8-1.6,1.1c0,0,0,3.1,0,3.3c0,0.1-0.1,0.2-0.2,0.3v0l0.7,0.6l0.6-0.6v0l-0.3-0.2l0-3.7l0.1-0.1l0.7,0.4
			c0,0,0,3,0,3.3s-0.2,0.3-0.2,0.3v0l0.8,0.6l0.7-0.7v0c-0.2,0-0.3-0.1-0.4-0.2C249.6,99.2,249.5,96,249.5,95.8L249.5,95.8
			L249.5,95.8z M264.9,92.3l-0.2-0.1l-0.2,0.4c-0.4,0.6-1.1,1-1.8,1l-2.5,0c0.1,0.4,0.1,0.9-0.1,1.3h1.2l-0.2,0.3
			c-0.5,0.7-1.2,1.2-2.1,1.2h-1.4c0.1,0.2,0.1,0.4,0.1,0.6c0,0.5-0.2,0.6-0.2,0.6h1.2c0.3,0,0.5-0.1,0.7-0.2
			c-0.4,0.5-0.6,1.1-0.7,1.7v0.6c0.5-0.1,0.9-0.2,1.4-0.1v-1.2c0-0.7,0.1-1.4,0.4-2l1-1.4c0.6,0,1.2-0.2,1.8-0.5v2.4
			c-0.3,0.3-0.6,0.5-1,0.5h-1.3c0.1,0.4,0.1,0.7,0,1.1c0.4,0,0.9,0,1.3-0.2c-0.1,0.3-0.1,0.7,0,1c0.4-0.1,0.7-0.1,1.1,0v-1.5
			c0-0.3,0-0.5,0.1-0.8h1.4v-0.2c-0.3,0-0.4-0.2-0.4-0.8v-1.1c0-0.7,0-1.7,0.4-2.4L264.9,92.3L264.9,92.3z M256.2,97L256.2,97
			l-1.1-0.5l0.8-1.8c-0.5-0.1-0.9-0.2-1.3-0.4c-0.4,0.4-0.9,0.7-1.4,1l0.2,1.6c0,0.1,0,0.2-0.1,0.3v0l1,0.3l-0.7,1.4
			c0.4,0.1,0.8,0.4,1.2,0.6c0.4-0.3,0.9-0.6,1.4-0.9c0,0-0.2-1.2-0.2-1.4C256,97.1,256.1,97,256.2,97L256.2,97L256.2,97z
			 M254.2,96.7L254,95l0.1-0.1c0.4,0.2,0.8,0.4,1.2,0.5l-0.7,1.4L254.2,96.7L254.2,96.7z M255.3,99c-0.4-0.3-0.8-0.5-1.2-0.7
			l0.6-1.1l0.5,0.2L255.3,99C255.4,98.9,255.3,99,255.3,99z M252.2,98.9c0,0-0.2-3-0.2-3.2c0-0.1,0-0.2,0.1-0.3v0
			c-0.4-0.2-0.8-0.4-1.2-0.6l-0.8,0.9l0.1,0.1c0.3-0.3,0.4-0.2,0.9,0l0.2,3.2l-0.7,0l-0.2,0.4l0.9,0l0.1,1.4h0.1
			c0.2-0.7,0.6-1.2,1.1-1.7v-0.2L252.2,98.9L252.2,98.9z M273.4,12.1l0.3-0.5l-0.5-0.3l-0.3,0.5l-0.5-0.3l-0.3,0.5l0.5,0.3l-0.3,0.5
			l0.5,0.3l0.3-0.5l0.5,0.3l0.3-0.5L273.4,12.1z M289.2,38.5c-0.1-0.2-0.1-0.3,0-0.5l3.2-1.2c0.1,0,0.2,0,0.3,0h0l0.3-1
			c-0.3-0.1-0.6-0.2-0.9-0.4h0c0,0,0.2,0.4-0.1,0.5l-3.1,1.2c-0.3,0.1-0.3,0-0.3,0h0l-0.3,1L289.2,38.5L289.2,38.5L289.2,38.5z
			 M289.8,73.8c0.2-0.3,0.2-0.7,0.2-1.1c-0.5,0.1-0.9,0.1-1.4,0v1.4c0,0.4,0,0.8-0.2,1.2c-0.4,0-0.8,0-1.2,0l0,2.5
			c0,0.6-0.1,1.1-0.4,1.6h-1.6c-0.6,0-1.2,0.2-1.7,0.5c0.3-0.6,0.5-1.3,0.6-2v-1.6c0.3-0.2,0.6-0.4,1-0.4h1.2
			c-0.1-0.4-0.1-0.9,0-1.3c-0.3,0-0.7,0-1,0.1c0.2-0.3,0.2-0.7,0.2-1.1c-0.5,0.1-0.9,0.1-1.4,0V75c0,0.4,0,0.8-0.2,1.2l0,0
			c-0.3,0.3-0.6,0.4-1,0.3v2.2c0,0.4,0.1,1.6-0.2,2.2l-0.7,1.1l0.2,0.1c0,0,0.7-1.5,2.2-1.5h3.3c-0.1-0.4-0.1-0.9,0.1-1.2h-0.6
			c0.2-0.2,0.5-0.5,0.7-0.7c0.3-0.3,0.8-0.5,1.2-0.6h1.2c-0.1-0.4-0.1-0.9,0-1.3c-0.9,0-1.2,0.1-1.7,0.6c0.1-0.2,0.1-0.4,0.1-0.7
			v-1.4c0.3-0.2,0.6-0.4,1-0.4h1.2c-0.1-0.4-0.1-0.9,0-1.3C290.4,73.7,290.1,73.7,289.8,73.8L289.8,73.8L289.8,73.8z M286.5,31.4
			l2.8-1.5l0.2,0.1c-0.1,0.4-0.3,0.7-0.6,1v0c0.3,0,0.6,0.1,0.9,0.2h0l0.5-1.1l-0.8-0.3l0.2-0.9c-0.3-0.1-0.6-0.2-0.9-0.3h0
			c0.1,0.2,0.1,0.5,0.1,0.5l-2.9,1.6c-0.1,0.1-0.2,0.1-0.3,0l0,0c0,0.5,0,1,0,1.4l1.2,0.3l0-0.2C286.5,32.2,286.5,32,286.5,31.4
			L286.5,31.4L286.5,31.4z M295.1,57.5c0.2-0.3,0.2-0.7,0.2-1c-0.4,0.1-0.9,0.1-1.3,0v1.2c0,0.4,0,0.7-0.2,1.1
			c-0.4,0.3-0.9,0.4-1.4,0.4v0.2c0.3,0,0.4,0.5,0.4,0.8v0.4c0,0.7,0,1.9-0.3,2.3l-0.4,0.6l-1.8,2.7l-1,1.5v0v-3.5l0.5-0.7
			c0.3-0.3,0.7-0.5,1.1-0.5h0.8c-0.1-0.4-0.1-0.8,0-1.2c-0.2,0-0.4,0-0.6,0c0.2-0.3,0.2-0.7,0.2-1.1c-0.5,0.1-0.9,0.1-1.4,0v1.3
			c0,0.4,0,0.8-0.2,1.1l-0.4,0.7c-0.1,0.2-0.5,0.5-1.5,0.5v0.2c0.3,0,0.4,0.5,0.4,0.8v3.3c0,0.7,0,1.9-0.3,2.3
			c-0.1,0.2-0.4,0.6-0.4,0.6l0.2,0.1c0,0,0.3-0.5,0.7-1.1l0.1-0.2c0.5-0.7,1.3-1.2,2.2-1.2h1.2c0-0.4,0.1-0.8,0.4-1
			c-1.4,0-2.3-0.2-3.1,0.9l-0.1,0.1c0.1-0.4,0.2-0.8,0.2-1.2l0.2-0.4c0.6-0.8,1.5-1.3,2.5-1.3h1.3c0-0.4,0.1-0.9,0.5-1.2
			c0.3-0.2,0.6-0.3,0.9-0.3h1c-0.1-0.4-0.1-0.7,0-1.1c-0.3,0-0.6,0-0.9,0.1c0.1-0.3,0.2-0.6,0.1-0.9c-0.4,0.1-0.8,0.1-1.2,0v1.2
			c0,0.4,0,0.7-0.2,1l0,0c-1.1,0-1.9-0.1-2.6,0.4l1.3-2l0.1-0.1l0.6-0.8l0.1-0.1v0l0.1-0.1c0.3-0.3,0.7-0.5,1.2-0.6h1.3
			c-0.1-0.4-0.1-0.8,0-1.2c-0.9,0-1.4,0.1-2,0.8c0.2-0.5,0.3-1,0.3-1.5v-1c0.3-0.2,0.8-0.4,1.2-0.4h0.8c-0.1-0.4-0.1-0.8,0-1.1
			C295.7,57.3,295.4,57.4,295.1,57.5L295.1,57.5z M285,28.5l1-0.6c0.7,0.1,1.3,0.3,1.9,0.6h0l0.8-1.5c-0.5-0.3-1-0.6-1.5-0.9
			l-2.8,1.8c-0.1,0.1-0.2,0.1-0.3,0h0c0.1,0.6,0.1,1.2,0.1,1.8l1.2,0.2v-0.2C285,29.6,285,29.2,285,28.5L285,28.5L285,28.5z
			 M287.9,26.7l-0.7,1.3c0,0-0.6-0.2-1-0.2L287.9,26.7L287.9,26.7z M289.8,35.3c0.1,0,0.2,0,0.3,0h0v-1l1.6,0.3
			c0-0.5,0.1-0.9,0.3-1.3c-0.5-0.3-0.9-0.7-1.2-1.1l-1.3,0.6c-0.1,0-0.2,0-0.3,0h0l-0.1,1.2l-1.9-0.3c0.1,0.5,0,0.9-0.1,1.4
			c0.5,0.3,1,0.7,1.4,1.1L289.8,35.3L289.8,35.3z M289.8,33.5l1.4-0.6l0.1,0c-0.1,0.4-0.3,0.9-0.3,1.3l-1.2-0.2L289.8,33.5
			L289.8,33.5z M287.8,35.2l-0.1-0.1c0.1-0.4,0.1-0.9,0.1-1.3l1.5,0.3v0.4L287.8,35.2L287.8,35.2z M283.3,59.9h-0.6v0.5h-0.5v0.6
			h0.5v0.5h0.6v-0.5h0.5v-0.6h-0.5L283.3,59.9z M296.4,48.6c0,0-0.3,0.1-0.4,0.1c0.2,0.3,0.5,0.7,0.8,1c0.2-0.1,0.4-0.2,0.6-0.3
			L296.4,48.6L296.4,48.6z M247.4,0c-28.7,0-52,23.3-52.1,52s23.3,52,52,52.1c28.7,0,52-23.3,52.1-52v0C299.5,23.3,276.2,0,247.4,0
			L247.4,0L247.4,0z M253,11.5c0.4,0.1,0.9,0.1,1.3,0.2v3l-1.3-2.1C253,12.6,253,11.5,253,11.5z M254.8,89.6l-0.5,0.5v0.6h0.6v0.6
			h-0.6v0.6h-0.6v-0.6h-0.6v-0.6h0.6V90l-0.5-0.5h-1.7L251,90v0.6h0.6v0.6H251v0.6h-0.6v-0.6h-0.6v-0.6h0.6V90l-0.5-0.5h-1.7
			l-0.5,0.5v0.6h0.6v0.6h-0.6v0.6h-0.6v-0.6h-0.6v-0.6h0.6V90l-0.5-0.5H245l-0.5,0.5v0.6h0.5v0.6h-0.6v0.6h-0.6v-0.6h-0.6v-0.6h0.6
			V90l-0.5-0.5h-1.7l-0.5,0.5v0.6h0.6v0.6h-0.6v0.6h-0.6v-0.6H240v-0.6h0.6v-0.6l-0.5-0.5h-5c0.2,0.2,1.7,1.6,2.5,2.2
			c-1.4-0.3-2.7-0.7-4-1.2v-0.7l0.3-0.3l1-0.9h8.9c0.2,0.3,0.5,0.4,0.8,0.5h0.2c0.2,0,0.4,0,0.6-0.1c0.2,0,0.3-0.1,0.5-0.2
			c0.1-0.1,0.3-0.2,0.4-0.3h4.1c0.1,0.1,0.2,0.1,0.2,0.2c0.3,0.2,0.7,0.4,1.1,0.4c0.3,0,0.7-0.1,1-0.3c0.1-0.1,0.2-0.2,0.3-0.3h7.1
			l1.3,1.1v0.8l-0.3,0.1c-1.2,0.4-2.5,0.8-3.8,1.1l2.2-2.3L254.8,89.6L254.8,89.6z M255.4,92.2c-5.3,1.1-10.8,1.1-16.1,0H255.4z
			 M243.4,22.5V25h-5v-2.5H243.4z M240.4,21.9v-4.1c0-0.2,0.1-0.3,0.2-0.4c0.1-0.1,0.3-0.2,0.5-0.2c0.4,0,0.6,0.3,0.6,0.6v4.1
			L240.4,21.9L240.4,21.9z M242.4,17.8c0-0.2,0.1-0.4,0.2-0.5c0.1-0.1,0.2-0.2,0.3-0.2c0.1,0,0.3,0.1,0.4,0.2
			c0.1,0.1,0.2,0.3,0.2,0.5v4.1h-1.1V17.8L242.4,17.8z M247.4,22.5h3.1V25h-6.2v-2.5L247.4,22.5L247.4,22.5z M244.3,21.9v-4.1
			c0-0.3,0.2-0.6,0.5-0.6c0.1,0,0.3,0.1,0.4,0.2c0.1,0.1,0.2,0.3,0.2,0.5v4.1L244.3,21.9z M245.9,21.9v-4.1c0-0.3,0.3-0.6,0.6-0.6
			s0.6,0.3,0.6,0.6v4.1L245.9,21.9L245.9,21.9z M247.7,21.9v-4.1c0-0.3,0.2-0.6,0.5-0.6s0.6,0.2,0.6,0.5c0,0,0,0.1,0,0.1v4.1
			L247.7,21.9L247.7,21.9z M247.4,41.5L247.4,41.5c-0.6,0-1.2,0.1-1.8,0.2l1.8-2.7l1.8,2.7C248.6,41.6,248,41.5,247.4,41.5
			L247.4,41.5L247.4,41.5z M248.9,42.2v3.1c-0.4-0.1-0.8-0.1-1.2-0.2v-3C248.1,42.1,248.5,42.1,248.9,42.2
			C248.9,42.2,248.9,42.2,248.9,42.2z M247.1,42.1v3.1c-0.5,0-0.9,0.1-1.3,0.2v-3.1C246.2,42.1,246.7,42.1,247.1,42.1L247.1,42.1z
			 M247.4,37.9l-2.6,4c-0.2,0.1-0.3,0.1-0.5,0.2v-1l3.1-4.8l3.1,4.7v1.1c-0.2-0.1-0.3-0.1-0.5-0.2L247.4,37.9L247.4,37.9z
			 M247.4,33.6l3.1,4.7v1.7l-3.1-4.8l-3.1,4.8v-1.6L247.4,33.6L247.4,33.6z M244.3,29.3c0-0.3,0.3-0.6,0.7-0.6
			c0.3,0,0.6,0.3,0.6,0.6v6.1l-1.3,2L244.3,29.3L244.3,29.3z M247.1,30v2.2h-1v-2.9c0-0.2,0.1-0.5,0.4-0.6c0.2-0.1,0.4-0.2,0.7-0.2
			v0.6c-0.3,0.2-0.3,0.5-0.2,0.8C247,29.9,247.1,30,247.1,30L247.1,30L247.1,30z M247,33.1l-0.9,1.3v-1.8
			C246.4,32.9,246.7,33,247,33.1z M247.7,29.1v-0.6c0.2,0,0.4,0.1,0.6,0.2c0.2,0.1,0.3,0.4,0.3,0.6v2.9h-1V30
			c0.3-0.2,0.3-0.5,0.2-0.8C247.8,29.2,247.8,29.1,247.7,29.1z M248.6,32.6v1.8l-0.9-1.3C248.1,33,248.4,32.9,248.6,32.6L248.6,32.6
			L248.6,32.6z M249.2,35.3v-6c0-0.3,0.3-0.6,0.6-0.6c0.3,0,0.6,0.3,0.6,0.6v8L249.2,35.3L249.2,35.3z M249.5,42.3
			c0.4,0.1,0.8,0.2,1.2,0.4v3.2c-0.4-0.2-0.8-0.4-1.2-0.5V42.3z M250.5,21.9h-1.1v-4.1c0-0.2,0.1-0.4,0.2-0.5
			c0.1-0.1,0.2-0.2,0.3-0.2c0.1,0,0.3,0.1,0.4,0.2c0.1,0.1,0.2,0.3,0.2,0.5V21.9z M250.5,25.6v2.7c-0.2-0.1-0.4-0.2-0.6-0.2
			c-0.4,0-0.7,0.2-0.9,0.4c-0.1-0.1-0.2-0.2-0.3-0.3c-0.3-0.2-0.6-0.3-0.9-0.3v-0.3h0.5V27h-0.5v-0.5h-0.6V27h-0.5v0.6h0.5v0.3
			c-0.4,0-0.7,0.1-1,0.3c-0.1,0.1-0.2,0.2-0.3,0.3c-0.2-0.3-0.6-0.4-0.9-0.4c-0.2,0-0.5,0.1-0.7,0.2v-2.7L250.5,25.6L250.5,25.6z
			 M245.2,42.4v3.1c-0.4,0.1-0.8,0.3-1.1,0.5v-3.2C244.4,42.6,244.8,42.5,245.2,42.4z M247.4,45.7c1.6,0,3.1,0.6,4.2,1.7
			c1.1,1.1,1.7,2.5,1.7,4c0,2.2-1.4,4.1-3.5,5.2c0-0.1,0-0.2,0-0.4c0.2-0.7,0.4-1.4,0.8-2.1c0.3,0,0.6-0.1,0.8-0.3
			c0.1-0.2,0.2-0.5,0-0.8c0.3-0.1,0.5-0.4,0.6-0.7c0.1-0.4-0.2-0.8-0.6-0.9c0.2-0.2,0.2-0.5,0.1-0.8c-0.2-0.3-0.5-0.5-0.9-0.5
			c0,0,0.1-0.3-0.3-0.6s-0.7-0.1-0.7-0.1c-0.1-0.2-0.2-0.3-0.4-0.3c-0.2-0.1-0.4-0.1-0.5,0c-0.1-0.1-0.3-0.2-0.4-0.2
			c-0.2,0-0.3,0-0.5,0.1c-0.3-0.3-0.8-0.4-1.1-0.1c0,0-0.1,0-0.1,0.1c0,0-0.1-0.1-0.4-0.1c-0.2,0-0.4,0.1-0.5,0.3
			c-0.2-0.1-0.4-0.1-0.5,0c-0.2,0.1-0.3,0.2-0.4,0.4c0,0-0.2-0.2-0.7,0.1c-0.2,0.1-0.4,0.4-0.3,0.6c-0.3-0.1-0.6,0.1-0.8,0.3
			c-0.2,0.3-0.2,0.7,0,0.9c-0.4,0.1-0.6,0.4-0.5,0.8c0,0.4,0.3,0.7,0.6,0.8c-0.1,0.3,0,0.5,0.1,0.7c0.2,0.2,0.5,0.4,0.8,0.3
			c0.1,0.2,0.4,1.7,0.5,2.3c-0.4-0.2-0.7-0.4-0.7-0.4c-2.6-1.6-3.3-5-1.7-7.6c0.2-0.4,0.5-0.8,0.9-1.1
			C244.3,46.3,245.8,45.6,247.4,45.7L247.4,45.7L247.4,45.7z M259.7,29.7v-0.5h-0.6v0.5h-0.5v0.6h0.5v1.7l-1.4,2.2v-11l3.3,5v5.8
			l-1.3-2v-1.7h0.5v-0.6L259.7,29.7L259.7,29.7z M259.4,32.5L261,35v1.4c-0.5-0.3-1.2-0.2-1.7,0.3c-0.2-0.3-0.6-0.5-1-0.5
			c-0.2,0-0.5,0.1-0.7,0.2v-1.3L259.4,32.5L259.4,32.5z M261,37.4v13.3l-1.4-2.1V37.4c0-0.4,0.3-0.6,0.7-0.6
			C260.7,36.8,261,37,261,37.4L261,37.4L261,37.4z M257.7,37.4c0-0.4,0.3-0.7,0.7-0.6c0.4,0,0.7,0.3,0.7,0.6v11.2l-1.4,2.1
			L257.7,37.4L257.7,37.4L257.7,37.4z M259.4,49.2l1.7,2.5v4.9c-0.2-0.1-0.4-0.2-0.7-0.2c-0.4,0-0.7,0.2-1,0.5
			c-0.3-0.3-0.6-0.5-1-0.5c-0.2,0-0.5,0.1-0.7,0.2v-4.8L259.4,49.2L259.4,49.2z M259.6,84.1V71.4h1.4v8.9l-1.3,2.4L259.6,84.1
			L259.6,84.1L259.6,84.1z M259.7,87.2v0.7h-0.4c0,0,0.1-0.1,0.1-0.1C259.5,87.6,259.6,87.4,259.7,87.2L259.7,87.2z M259.6,70.1
			V57.6c0-0.2,0.1-0.3,0.2-0.4c0.1-0.1,0.3-0.2,0.5-0.2c0.4,0,0.7,0.3,0.7,0.6l0,0v12.5L259.6,70.1L259.6,70.1z M258.3,56.9
			c0.2,0,0.4,0.1,0.5,0.2c0.1,0.1,0.2,0.3,0.2,0.4v12.5h-1.4V57.4C257.7,57.1,258,56.9,258.3,56.9L258.3,56.9L258.3,56.9z
			 M259.1,71.4v12.2l-0.2-0.2c-0.5-0.4-0.9-0.9-1.2-1.4v0l0,0V71.4L259.1,71.4L259.1,71.4z M258.5,83.9c0.4,0.4,0.8,0.7,1.1,0.9
			c-0.1,0.6-0.2,1.3-0.3,1.9c-0.1,0.2-0.1,0.4-0.3,0.6c-0.1,0.1-0.2,0.2-0.4,0.2c-0.1,0-0.3-0.1-0.4-0.2c-0.3-0.4-0.4-1.5-0.4-2
			v-0.5c-0.6-0.2-1.1-0.5-1.6-0.9c-0.6-0.6-1.1-1.6-1.4-3.6c-0.1-0.7-0.2-2.2-0.4-3.7c-0.1-1.3-0.3-2.6-0.7-3.9l-0.5,0.2
			c0.4,1.2,0.6,2.4,0.7,3.7c0.2,1.5,0.3,3,0.4,3.7c0.3,2,0.9,3.2,1.6,3.9c0.4,0.4,0.9,0.7,1.4,0.9c-0.2,0.2-0.3,0.4-0.5,0.6
			c-0.3,0.5-0.7,1-1.1,1.4c-0.3,0.4-0.7,0.7-1.2,0.7c-0.2,0-0.5-0.1-0.6-0.3c-0.7-0.8-1.7-1.3-2.8-1.4c-0.7,0-1.3,0.3-1.8,0.7
			c-0.3,0.3-0.6,0.4-0.9,0.4c-0.5,0-0.9-0.2-1.2-0.6c-0.2-0.1-0.5-0.5-0.5-0.4c-0.2-0.2-0.5-0.4-0.8-0.5c-0.3-0.1-0.5-0.1-0.8-0.1
			c-0.4,0-0.7,0.1-1,0.2c-0.7,0.3-1.2,0.7-1.8,1.2c-0.4,0.3-0.8,0.5-1.3,0.6c-0.5,0-1.1-0.3-1.4-0.7c-0.2-0.3-0.4-0.5-0.7-0.8
			c-0.2-0.1-0.4-0.2-0.6-0.2c1-2.4,2.5-7,2.9-8.8c0.3-1,0.5-2.1,0.8-3.1c0.2-0.8,0.6-1.9,1.4-2.5c0.4-0.1,0.7-0.2,1.1-0.2
			c0.2,0,0.4,0,0.5,0.1c0.6,0.3,1.1,0.6,1.6,0.9c0.6,0.4,1.2,0.6,1.9,0.7c1.3,0,2.6-0.8,3-0.9c0.1-0.1,0.2-0.1,0.4-0.2
			c0.2-0.1,0.3-0.1,0.5-0.2l0.1-0.1c0.2-0.1,0.5-0.2,0.8-0.2c0.2,0,0.3,0,0.5,0.1c0.2,0.1,0.4,0.3,0.5,0.5c0.5,0.9,0.9,2.7,1.1,3.6
			c0.2,1.2,0.5,3.2,0.9,4.7c0.1,0.5,0.3,0.9,0.6,1.4c0.1,0.2,0.2,0.4,0.3,0.6l0.1,0.1C257.6,82.9,258,83.5,258.5,83.9L258.5,83.9
			L258.5,83.9z M257.9,87.8h-2c0.2-0.2,0.5-0.5,0.7-0.8c0.3-0.3,0.5-0.7,0.7-1c0,0.3,0.1,0.6,0.1,0.8c0.1,0.3,0.2,0.6,0.4,0.8
			C257.9,87.8,257.9,87.8,257.9,87.8L257.9,87.8L257.9,87.8z M253.3,87.8h-0.4c0-0.2-0.1-0.3-0.2-0.5
			C252.9,87.5,253.1,87.7,253.3,87.8L253.3,87.8L253.3,87.8z M251.9,87c0.3,0.4,0.5,0.8,0.6,1.3c0,0.1,0,0.2,0,0.2v0
			c-0.2,0.1-0.4,0.2-0.7,0.2c-0.3,0-0.6-0.1-0.8-0.3c-0.3-0.2-0.6-0.5-0.8-0.9c-0.1-0.1-0.1-0.3-0.2-0.3c0.4-0.3,0.8-0.4,1.2-0.4h0
			l0.4,1.1l0.5-0.2L251.9,87L251.9,87z M249.6,87.8H249c0.2-0.1,0.3-0.2,0.5-0.3C249.5,87.7,249.5,87.7,249.6,87.8L249.6,87.8z
			 M247.7,87.8h-1.1c0-0.2,0-0.4,0-0.6v-0.1l0.1,0.1C247,87.5,247.4,87.7,247.7,87.8L247.7,87.8L247.7,87.8z M245.6,88l0.5-1.4
			l0.1,0.1v0.5c0,0.3,0,0.6-0.1,0.8c0,0.1-0.1,0.2-0.2,0.2c-0.1,0.1-0.3,0.2-0.4,0.2c-0.1,0-0.2,0.1-0.3,0.1c-0.1,0-0.3,0.1-0.5,0.1
			h-0.1c-0.3-0.1-0.5-0.2-0.6-0.5c-0.1-0.1-0.1-0.3-0.1-0.4c0-0.5,0.2-0.9,0.5-1.3c0,0,0.1-0.1,0.1-0.1c0.1,0,0.2-0.1,0.3-0.1h0.2
			c0.1,0,0.2,0,0.3,0l0.2,0l-0.5,1.5L245.6,88L245.6,88z M243.4,87.8h-1.1c0.2-0.1,0.3-0.2,0.4-0.3c0.3-0.2,0.6-0.4,0.8-0.6
			C243.4,87.2,243.4,87.5,243.4,87.8C243.4,87.8,243.4,87.8,243.4,87.8L243.4,87.8L243.4,87.8z M235.4,84.6c1.2-1.2,2.3-2.6,3.1-4.2
			c1.1-2,1.8-4.7,2.1-5.8c0.2-0.9,0.7-1.7,1.4-2.3c-0.3,0.5-0.4,1-0.6,1.6c-0.3,1-0.5,2.1-0.8,3.1c-0.9,3.2-1.9,6.3-3.1,9.3
			c-0.1,0.2-0.3,0.5-0.4,0.7c-0.1,0.2-0.4,0.4-0.6,0.5c0,0-0.1,0-0.1,0c-0.2,0-0.4-0.2-0.6-0.7C235.5,86.1,235.4,85.3,235.4,84.6
			L235.4,84.6L235.4,84.6z M235.6,87.8h-0.5v-1c0,0.1,0,0.2,0.1,0.2C235.3,87.4,235.4,87.6,235.6,87.8L235.6,87.8L235.6,87.8z
			 M237.1,71.4v10.1c-0.4,0.7-0.9,1.3-1.4,1.9v-12C235.7,71.4,237.1,71.4,237.1,71.4z M235.7,70.1V57.6c0-0.2,0.1-0.3,0.2-0.4
			c0.1-0.1,0.3-0.2,0.5-0.2c0.4,0,0.6,0.3,0.7,0.6v12.6L235.7,70.1L235.7,70.1z M237.1,50.7l-1.4-2.1V37.4c0-0.4,0.3-0.7,0.7-0.6
			c0,0,0,0,0,0c0.2,0,0.4,0.1,0.5,0.2c0.1,0.1,0.2,0.3,0.2,0.4L237.1,50.7L237.1,50.7z M242.6,56.1c0.6,0,1.1,0.5,1.1,1.1l-0.3,0.1
			l0.1,0.3c0,0,0,0.1,0,0.1c0,0.2-0.1,0.2-0.3,0.3c-0.1,0-0.3-0.1-0.3-0.2l0-0.1v-0.1h0.5v-0.6h-0.5v-0.5h-0.6v0.5h-0.5v0.6h0.5v0.1
			l-0.6,0.2c-0.1-0.2-0.2-0.4-0.2-0.6C241.5,56.6,242,56.1,242.6,56.1C242.6,56.1,242.6,56.1,242.6,56.1L242.6,56.1L242.6,56.1z
			 M242.6,55.8v-0.3c0.1,0.1,0.2,0.2,0.3,0.3C242.8,55.8,242.7,55.8,242.6,55.8L242.6,55.8L242.6,55.8z M244.1,57.6L244.1,57.6
			l0.3-0.1l0.7,1.9l-0.2,0.1c-0.2-0.2-0.4-0.4-0.7-0.4c-0.5,0-0.9,0.4-0.9,0.9l-0.3,0.1l-0.7-2l0.3-0.1c0.2,0.2,0.4,0.4,0.7,0.4
			c0.2,0,0.4-0.1,0.6-0.2C244,58.1,244.1,57.9,244.1,57.6L244.1,57.6L244.1,57.6z M243.9,56.6l0.4,0.3L244,57
			C244,56.9,244,56.8,243.9,56.6L243.9,56.6z M250,54.1h-0.3c0,0.2-0.1,0.3-0.2,0.5c-0.1,0.2-0.1,0.1-0.4,0.5
			c-0.3-0.2-0.5-0.4-0.9-0.5v-0.5H248v0.5h-0.1v-0.1h-0.2v0.2c0,0.1-0.1,0.2-0.2,0.1c-0.1,0-0.1-0.1-0.1-0.1v-0.2h-0.2v0.1h-0.1
			v-0.5h-0.3v0.5c-0.3,0.1-0.5,0.2-0.8,0.4c-0.4-0.2-0.7-0.5-0.8-1H245c-0.2-0.5-0.3-1.1-0.4-1.7c0.2-0.2,0.7-0.6,0.6-0.8
			c0.1,0.1,0.3,0.2,0.5,0.2c0.3,0,0.5-0.1,0.7-0.3c0.4,0.2,0.9,0.2,1.1-0.2c0.1,0.1,0.3,0.3,0.5,0.3c0.2,0,0.4-0.1,0.6-0.1
			c0.1,0.2,0.4,0.4,0.7,0.3c0.5,0,0.5-0.2,0.5-0.2s0.6,0.6,0.8,0.8C250.4,53,250.2,53.6,250,54.1L250,54.1L250,54.1z M250.8,57.6V58
			c-0.2-0.3-0.4-0.6-0.7-0.8c0.2-0.1,0.5-0.3,0.7-0.4c0,0.1-0.1,0.3-0.1,0.4C250.7,57.3,250.7,57.4,250.8,57.6L250.8,57.6
			L250.8,57.6z M250.5,58.6c-0.2,0.2-0.4,0.4-0.7,0.6c-0.4,0.3-0.7,0.7-0.8,1.2c0,0.1,0,0.1,0,0.2c0.1,0.4,0.2,0.8,0.4,1.1
			c0.3,0.8,0.8,1.9,1.3,2.9c0.2,0.5,0.5,0.9,0.7,1.3c0.1,0.3,0.3,0.5,0.6,0.7c0.2,0.2,0.4,0.3,0.7,0.4c0.7,0.2,1.3,0.4,1.6,1
			l0.5-0.2c-0.4-0.9-1.3-1.1-2-1.3l-0.1,0v-0.1c0-0.7,0.1-1.4,0.2-2l-0.6-0.1c-0.1,0.6-0.2,1.2-0.2,1.8c-0.1-0.1-0.2-0.2-0.2-0.4
			c-0.3-0.8-0.5-1.6-0.6-2.5c-0.1-0.9-0.1-1.8-0.2-2.3l-0.6,0.1c0.1,0.6,0.1,1.7,0.2,2.8c-0.1-0.3-0.3-0.6-0.4-0.8
			c-0.3-0.6-0.5-1.1-0.7-1.6c-0.1-0.3-0.2-0.5-0.3-0.8c0,0,0,0,0-0.1c0-0.2,0.2-0.5,0.6-0.8c0.2-0.2,0.5-0.4,0.6-0.6
			c2.2,2.9,4.3,6.7,4.8,8.5c0,0.1,0,0.3,0,0.4c0,0.7-0.4,1.4-1,1.9c-0.2,0.1-0.3,0.2-0.5,0.3v-0.2c0-0.4-0.1-0.9-0.4-1.2
			c-0.1-0.2-0.3-0.3-0.5-0.4c-0.4-0.3-0.8-0.5-1.3-0.5h-0.2c0,0-0.1,0-0.3-0.2c-0.5-0.6-1.2-2.3-1.8-4.1c-0.5-1.6-0.9-3.3-1.1-4.2
			c0.2-0.1,0.4-0.2,0.6-0.3c0.3-0.2,0.5-0.4,0.5-0.7c0-0.2,0.1-0.4,0.1-0.5C250,58,250.2,58.3,250.5,58.6L250.5,58.6L250.5,58.6z
			 M252.1,56.1c0.6,0,1.1,0.5,1.1,1.1s-0.5,1.1-1.1,1.1s-1.1-0.5-1.1-1.1l0,0C251,56.6,251.5,56.1,252.1,56.1
			C252.1,56.1,252.1,56.1,252.1,56.1L252.1,56.1z M252,55.8c0.1-0.1,0.1-0.1,0.2-0.2v0.2L252,55.8L252,55.8z M253.7,45.1v4.8
			c-0.2-0.8-0.5-1.5-1-2.1v-3.7C253.1,44.4,253.4,44.7,253.7,45.1L253.7,45.1z M252.8,43.4l0.9-1.5v2.3
			C253.4,44,253.1,43.7,252.8,43.4L252.8,43.4z M253.7,57.6v4.7c-0.3-0.5-0.6-1-1-1.6v-2.4c0.7-0.4,0.9-1.2,0.6-1.9
			c-0.1-0.2-0.3-0.4-0.6-0.6v-1c0.5-0.6,0.8-1.3,1-2v3.8C253.6,57,253.6,57.4,253.7,57.6L253.7,57.6L253.7,57.6z M252.2,58.5v1.4
			c-0.3-0.4-0.6-0.8-0.8-1.2v-0.4C251.6,58.5,251.8,58.5,252.2,58.5L252.2,58.5L252.2,58.5z M255.1,70.1c0.7-0.5,1.1-1.3,1.1-2.2
			c0-0.2,0-0.3,0-0.5c-0.1-0.5-0.3-1-0.5-1.5v-7.4c0.5-0.2,0.8-0.7,0.8-1.2v12.9L255.1,70.1L255.1,70.1z M256.4,71.4v6.8
			c-0.2-1-0.4-2-0.5-2.7c-0.1-0.9-0.4-1.7-0.6-2.6c-0.1-0.4-0.3-0.9-0.5-1.3c-0.1-0.1-0.1-0.2-0.2-0.3
			C254.5,71.4,256.4,71.4,256.4,71.4z M254.3,44.9v-3l2.1,3.2v4C256,47.6,255.3,46.2,254.3,44.9L254.3,44.9L254.3,44.9z M256.4,53.2
			v3.9c0-0.5-0.3-1-0.8-1.2v-7.4C256.1,50,256.4,51.6,256.4,53.2C256.4,53.2,256.4,53.2,256.4,53.2z M255,47.1v8.7
			c-0.3,0-0.5,0.1-0.7,0.2V45.8C254.6,46.2,254.8,46.7,255,47.1L255,47.1z M254.3,40.9v-2l2.1,3.2v2L254.3,40.9L254.3,40.9z
			 M254.3,37.9v-3.5c0-0.6,0.5-1,1-1c0.6,0,1,0.4,1.1,1v6.7L254.3,37.9z M255.3,32.8c-0.5,0-1,0.3-1.3,0.7c-0.3-0.4-0.8-0.7-1.4-0.7
			c-0.4,0-0.8,0.2-1.2,0.4l2.6-4l2.4,3.6v0.4C256.1,32.9,255.7,32.8,255.3,32.8L255.3,32.8L255.3,32.8z M255,56.1
			c0.6,0,1.1,0.5,1.1,1.1s-0.5,1.1-1.1,1.1s-1.1-0.5-1.1-1.1l0,0C253.9,56.6,254.4,56.1,255,56.1L255,56.1L255,56.1z M255,58.5v6.1
			c-0.2-0.4-0.5-0.9-0.7-1.3v-5C254.5,58.5,254.8,58.5,255,58.5z M252.1,70.3l-2,1.2c-0.1,0-0.1-0.1-0.2-0.1l2-1.3l-0.3-0.5
			l-2.1,1.4c0-0.1-0.1-0.2-0.1-0.3l2.1-1.3l-0.3-0.5l-1.6,0.9c0.1-0.2,0.3-0.4,0.5-0.5c0.2-0.1,0.2-0.1,1.8-1.1h0.1
			c0.3,0.1,0.6,0.2,0.9,0.4c0.4,0.3,0.6,0.8,0.6,1.2c0,0.1,0,0.3,0,0.4l-1.3,0.8c-0.2,0.1-0.4,0.2-0.6,0.3c-0.2,0.1-0.3,0.1-0.5,0.2
			l1.3-0.8L252.1,70.3L252.1,70.3z M247.2,70.8H247c-0.7-0.1-1.3-0.7-1.3-1.4c0-0.1,0-0.1,0-0.2c0.1-0.8,0.8-1.3,1.5-1.3
			c0.1,0,0.2,0,0.3,0l0.2,0l0.1-0.1c0.2-0.4,0.6-0.6,1.1-0.6c0.3,0,0.6,0.1,0.9,0.2c0.4,0.2,0.7,0.6,0.7,1.1l-0.2,0.1v0
			c0-0.4-0.2-0.7-0.5-0.9c-0.2-0.2-0.5-0.3-0.8-0.3c-0.5,0-1,0.3-1.2,0.8c-0.2-0.1-0.4-0.2-0.6-0.2c-0.6,0-1.2,0.4-1.3,1.1
			c0,0.1,0,0.1,0,0.2c0,0.3,0.1,0.7,0.4,0.9c0.2,0.2,0.5,0.3,0.8,0.3c0.1,0,0.2,0,0.3,0c0,0.7,0.6,1.2,1.3,1.3c0.2,0,0.3,0,0.5-0.1
			l0.1-0.1c0.1,0.1,0.1,0.1,0.2,0.2c-0.2,0.1-0.3,0.1-0.5,0.2c-0.1,0-0.3,0-0.4,0c-0.7,0-1.2-0.4-1.4-1.1L247.2,70.8L247.2,70.8z
			 M247.2,72l-0.3-0.2c-0.3-0.2-0.5-0.3-0.8-0.5h0.6C246.9,71.6,247,71.8,247.2,72L247.2,72z M239.8,56.1c0.6,0,1.1,0.5,1.1,1.1
			s-0.5,1.1-1.1,1.1s-1.1-0.5-1.1-1.1l0,0C238.7,56.6,239.2,56.1,239.8,56.1z M239.7,55.8v-8.5c0.2-0.5,0.5-0.9,0.8-1.4V56
			C240.3,55.9,240,55.8,239.7,55.8L239.7,55.8L239.7,55.8z M240.5,58.3V64l-0.4,0.8c-0.1,0.2-0.2,0.5-0.4,0.7v-6.9h0
			C240,58.6,240.3,58.5,240.5,58.3L240.5,58.3L240.5,58.3z M239.4,67.8L239.4,67.8c0.3-1,0.7-1.9,1.2-2.8c0.6-1.1,1.3-2.4,2.1-3.7
			l0.7,1.9l1.3-0.5l-0.1-0.3c0,0,0-0.1,0-0.1c0-0.2,0.1-0.3,0.3-0.3c0,0,0,0,0,0c0.1,0,0.2,0,0.3,0.2l0.1,0.3
			c-0.3,0.9-0.9,2.3-1.1,3c-0.1,0-0.2,0-0.3,0c-0.6,0.1-1.1,0.3-1.4,0.8c0.1-1,0.3-2,0.6-2.9l-0.5-0.2c-0.5,1.8-0.8,3.6-0.9,5.5
			c0,0.3,0,0.6,0.1,0.8c0.1,0.5,0.5,0.8,1,0.8c0.6-0.1,1.1-0.3,1.5-0.7c-0.4,0.7-1,1.2-1.8,1.4c-0.1,0-0.2,0-0.3,0
			c-0.7-0.1-1.4-0.5-1.9-1c-0.6-0.5-0.9-1.2-1-2C239.3,68.1,239.3,67.9,239.4,67.8L239.4,67.8z M243.8,60c0-0.2,0.2-0.3,0.3-0.3
			c0.1,0,0.2,0,0.3,0.2c0,0,0,0.1,0,0.1c0,0.2-0.1,0.3-0.3,0.3c-0.1,0-0.2,0-0.3-0.2C243.8,60.1,243.8,60.1,243.8,60L243.8,60
			L243.8,60z M244.1,61c0.5,0,0.9-0.4,0.9-0.9l0.3-0.1l0.7,1.9l-0.1,0l-0.1,0c-0.2-0.2-0.4-0.4-0.7-0.4c-0.5,0-0.9,0.4-0.9,0.9
			l-0.3,0.1l-0.6-1.9l0.3-0.1C243.5,60.8,243.8,61,244.1,61L244.1,61L244.1,61z M247.5,58.1h0.3c0.6,0,1.2-0.4,1.5-0.9
			c0,0.3,0,0.6-0.1,0.9c0,0.2-0.2,0.3-0.3,0.4c-0.2,0.1-0.4,0.2-0.7,0.4l-0.2,0.1l0,0.2c0.1,0.2,0.1,0.6,0.2,1
			c-0.2,0.2-0.4,0.3-0.7,0.3c-0.3,0-0.6,0-0.9-0.2c0.1-0.4,0.2-0.7,0.3-0.9L247,59l-0.2-0.1c-0.5-0.2-0.9-0.6-1.1-1.1
			c0-0.1,0-0.3-0.1-0.5c0-0.1,0-0.3,0-0.4C245.9,57.7,246.7,58.1,247.5,58.1L247.5,58.1L247.5,58.1z M246.8,55.8h1.3
			c-0.1,0.4-0.4,0.6-0.8,0.5C247,56.3,246.8,56,246.8,55.8L246.8,55.8z M249,64.9c-0.2-1.1-0.5-2.5-0.8-4.1l0.2-0.1
			c0.2,0.9,0.5,2,0.9,3c0.3,1,0.4,2,0.4,3.1c-0.1,0-0.2-0.1-0.3-0.1h0C249.4,66.7,249.2,66,249,64.9L249,64.9L249,64.9z M248.2,64.2
			c-0.1-0.1-0.2-0.3-0.2-0.4c-0.1-0.2-0.4-0.4-0.6-0.4c0,0-0.1,0-0.1,0l-0.1,0c0.1-0.5,0.2-1.6,0.2-2.5h0.2
			C247.8,62.1,248,63.3,248.2,64.2L248.2,64.2L248.2,64.2z M246.3,61.2l0.2-0.5c0.1,0.1,0.2,0.1,0.4,0.2c0,0.5-0.1,1-0.1,1.5
			L246.3,61.2L246.3,61.2z M246.5,63.6l-0.2,0.1l-0.4-1.2l0.1,0l0.2-0.1L246.5,63.6L246.5,63.6z M246.3,59.3
			c-0.1,0.3-0.2,0.7-0.3,1.1l-0.3-0.7l-0.4-1.2C245.6,58.8,245.9,59.1,246.3,59.3L246.3,59.3L246.3,59.3z M245.8,64.1
			c-0.2,0.2-0.3,0.4-0.4,0.7c-0.1,0.3-0.3,0.5-0.5,0.7c0.2-0.6,0.5-1.3,0.7-1.9L245.8,64.1L245.8,64.1z M243.9,66.2
			c-0.3,0.4-0.6,0.7-0.9,1.1c-0.2,0.3-0.5,0.6-0.6,0.9c0-0.2,0-0.4,0.1-0.6C242.8,66.8,243.4,66.3,243.9,66.2L243.9,66.2L243.9,66.2
			z M245.2,69L245.2,69l0,0.1c0,0.1,0,0.2,0,0.3c0,0.5,0.2,1,0.6,1.4h-1.4C244.8,70.3,245,69.7,245.2,69L245.2,69L245.2,69z
			 M245.4,68.1c-0.2,0.1-0.3,0.2-0.5,0.3l-0.2,0.1c0,0-0.1,0-0.1,0.1c-0.9,0.9-1.6,1.2-1.9,1.2c-0.2,0-0.3-0.1-0.5-0.4
			c0-0.1,0-0.2,0-0.3c0.2-0.3,0.6-0.9,1.1-1.5c0.4-0.6,0.9-1.2,1.6-1.6c0.4-0.2,0.7-0.6,0.9-1.1c0.2-0.4,0.4-0.7,0.6-0.8l0.9-0.3
			c0.1,0.1,0.1,0.1,0.2,0.2l-0.6,0.3l0.2,0.5l0.7-0.3c0,0.1,0.1,0.1,0.1,0.2l-0.7,0.3l0.2,0.5l0.7-0.3c0,0.1,0,0.2,0.1,0.2l-0.6,0.2
			l0.2,0.5l0.5-0.2v0.1c0,0.1,0,0.2,0,0.2c-0.3,0.1-1.3,0.6-1.9,0.9C246.1,67.6,245.7,67.9,245.4,68.1L245.4,68.1L245.4,68.1z
			 M250.3,66.5c0.1,0.2,0.2,0.4,0.3,0.5c0.2,0.3,0.3,0.6,0.6,0.9c0.1,0.1,0.1,0.1,0.2,0.2l-0.2,0.2c-0.1-0.5-0.4-0.9-0.8-1.2v-0.2
			C250.3,66.8,250.2,66.6,250.3,66.5L250.3,66.5L250.3,66.5z M249.6,69.2c-0.1,0.1-0.2,0.2-0.2,0.3l-0.4,0l-0.2,0.5l0.3,0.2
			c-0.1,0.2-0.1,0.4-0.1,0.6c0,0.2,0,0.3,0.1,0.5l-0.1,0c-0.1,0-0.2,0-0.2,0c-0.2,0-0.4-0.1-0.5-0.2c-0.1-0.1-0.2-0.3-0.2-0.5
			c0-0.1,0-0.2,0.1-0.3l-0.4-0.4c-0.2,0.1-0.4,0.2-0.6,0.2c-0.3,0.1-0.6-0.2-0.7-0.5c0,0,0-0.1,0-0.1c0,0,0-0.1,0-0.1
			c0.1-0.3,0.4-0.6,0.7-0.6c0.3,0,0.5,0.2,0.6,0.4l0.5-0.2c0-0.1,0-0.1,0-0.2c0-0.2,0.1-0.4,0.2-0.5c0.1-0.1,0.3-0.2,0.5-0.2
			c0.1,0,0.3,0,0.4,0.1c0.2,0.1,0.3,0.3,0.3,0.5C249.7,68.9,249.6,69,249.6,69.2L249.6,69.2L249.6,69.2z M242,55.9
			c-0.7,0.3-1,1.2-0.6,1.9c0.1,0.1,0.1,0.2,0.2,0.3l0.4,1.2v2.1c-0.3,0.5-0.6,1-0.9,1.5v-5.4c0-0.1,0.1-0.3,0.1-0.4
			c0-0.1,0-0.3-0.1-0.4v-4c0.2,0.7,0.5,1.4,0.9,2.1C242,54.8,242,55.9,242,55.9z M241.1,44.3v-2.4l1,1.5
			C241.7,43.7,241.4,44,241.1,44.3L241.1,44.3z M242,44.2V48c-0.4,0.6-0.7,1.4-0.9,2.1v-4.9C241.4,44.8,241.7,44.5,242,44.2
			L242,44.2z M240.9,33.5c-0.3-0.4-0.8-0.7-1.3-0.7c-0.4,0-0.8,0.1-1.1,0.4v-0.3l2.4-3.6l2.6,4v0c-0.3-0.3-0.8-0.4-1.2-0.4
			C241.7,32.8,241.1,33.1,240.9,33.5L240.9,33.5L240.9,33.5z M238.4,34.4c0-0.6,0.5-1,1.1-1c0.5,0,1,0.4,1,1c0,0,0,0,0,0v3.5
			l-2.1,3.2V34.4z M240.5,38.9v2l-2.1,3.2v-2L240.5,38.9z M240.5,41.9v3c-1,1.2-1.7,2.7-2.1,4.2v-4L240.5,41.9z M238.4,53.3
			c0-1.6,0.2-3.2,0.7-4.7v7.2c-0.4,0.2-0.7,0.6-0.7,1L238.4,53.3L238.4,53.3L238.4,53.3z M239.2,58.4v8.3c-0.1,0.3-0.2,0.6-0.3,1
			c0,0.2-0.1,0.3-0.1,0.5c0,0.7,0.3,1.4,0.7,1.9h-1.1V57.4C238.5,57.9,238.8,58.2,239.2,58.4L239.2,58.4L239.2,58.4z M241,71.4
			c0.2,0.1,0.5,0.3,0.8,0.3l-0.1,0.1c-0.8,0.7-1.3,1.6-1.6,2.6c-0.4,1.6-1,3.3-1.7,4.8v-7.8L241,71.4L241,71.4z M237.7,87
			c0.1-0.1,0.1-0.3,0.2-0.4c0.1-0.1,0.1-0.1,0.2-0.1c0.1,0,0.3,0,0.4,0.1c0.2,0.2,0.4,0.4,0.6,0.6c0.2,0.2,0.4,0.4,0.6,0.6h-2.6
			C237.4,87.6,237.6,87.4,237.7,87L237.7,87L237.7,87z M256.4,31.8l-2.1-3.2v-1h0.5V27h-0.5v-0.5h-0.6V27h-0.5v0.6h0.5v1.1l-2.3,3.5
			v-6.6h5V31.8z M251.7,33.7c0.2-0.2,0.5-0.3,0.8-0.3c0.6,0,1.1,0.5,1.1,1.1c0,0,0,0,0,0v3.4l-2.3,3.5v-7
			C251.4,34.1,251.5,33.9,251.7,33.7L251.7,33.7z M253.7,38.9v2l-1.4,2.2c-0.3-0.2-0.6-0.4-0.9-0.6v0L253.7,38.9z M252.2,43.7v3.5
			c-0.3-0.3-0.6-0.6-1-0.8V43C251.5,43.2,251.9,43.4,252.2,43.7L252.2,43.7L252.2,43.7z M243.5,46.4c-0.3,0.2-0.6,0.5-0.9,0.8v-3.5
			c0.3-0.2,0.6-0.4,0.9-0.6C243.5,43.1,243.5,46.4,243.5,46.4z M242.5,43.1l-1.4-2.2v-2l2.4,3.6C243.1,42.7,242.8,42.8,242.5,43.1
			L242.5,43.1z M241.1,37.9v-3.4c0-0.6,0.5-1.1,1.1-1.1c0.3,0,0.6,0.1,0.8,0.3c0.2,0.2,0.3,0.4,0.3,0.6v7.1L241.1,37.9L241.1,37.9z
			 M241.1,28.6v-1h0.5V27h-0.5v-0.5h-0.6V27H240v0.6h0.5v1l-2.1,3.2v-6.3h5v6.6L241.1,28.6L241.1,28.6z M239.6,21.9h-1.2v-5.2
			l-0.4-0.6V14h0.5v-0.6h-0.5v-0.5h-0.6v0.5H237V14h0.5v2.1l-0.4,0.6v5.4l-3.3,5V13.5c1.9-0.7,3.8-1.2,5.8-1.6L239.6,21.9
			L239.6,21.9z M237.1,23.1V34l-1.4-2.1v-1.7h0.5v-0.6h-0.5v-0.5h-0.6v0.5h-0.5v0.6h0.5v1.7l-1.4,2.1v-5.8L237.1,23.1L237.1,23.1z
			 M235.4,32.5l1.7,2.5v1.4c-0.2-0.1-0.5-0.2-0.7-0.2c-0.4,0-0.7,0.2-1,0.4c-0.2-0.3-0.6-0.4-1-0.4c-0.2,0-0.5,0.1-0.7,0.2V35
			L235.4,32.5L235.4,32.5z M234.5,36.8c0.4,0,0.7,0.3,0.7,0.6v11.1l-1.4,2.1V37.4C233.8,37.1,234.1,36.8,234.5,36.8L234.5,36.8
			L234.5,36.8z M235.4,49.2l1.7,2.5v4.9c-0.2-0.1-0.4-0.2-0.7-0.2c-0.4,0-0.7,0.2-1,0.5c-0.2-0.3-0.6-0.5-1-0.5
			c-0.2,0-0.5,0.1-0.7,0.2v-4.9L235.4,49.2L235.4,49.2z M234.4,57c0.4,0,0.7,0.3,0.7,0.6v12.5h-1.4V57.6
			C233.8,57.2,234.1,56.9,234.4,57L234.4,57L234.4,57z M235.1,71.4V84l0,0v-1.3l-1.3-2.4v-8.9H235.1z M234.2,83v5.1l-0.7,0.6v-6.9
			L234.2,83L234.2,83z M260.6,88.1V83l0.7-1.2v6.9L260.6,88.1z M261,27.1l-3.3-5v-5.4l-0.4-0.6V14h0.5v-0.6h-0.5v-0.5h-0.6v0.5h-0.5
			V14h0.5v2.1l-0.3,0.6v5.2h-1.2v-10c2,0.4,3.9,0.9,5.8,1.6L261,27.1L261,27.1z M256.4,22.5V25h-5v-2.5H256.4z M251.4,21.9v-4.1
			c0-0.3,0.2-0.6,0.5-0.6c0.1,0,0.3,0.1,0.4,0.2c0.1,0.1,0.2,0.3,0.2,0.5v4.1C252.4,21.9,251.4,21.9,251.4,21.9z M253,21.9v-4.1
			c0-0.4,0.3-0.6,0.6-0.6c0.2,0,0.4,0.1,0.5,0.2c0.1,0.1,0.2,0.3,0.2,0.5v4.1L253,21.9L253,21.9z M254.4,15.7v1.1
			c-0.2-0.1-0.4-0.2-0.7-0.2c-0.4,0-0.7,0.2-0.9,0.4c-0.2-0.3-0.5-0.4-0.8-0.4c-0.3,0-0.5,0.1-0.7,0.3v-1.3l1.5-2.3L254.4,15.7
			L254.4,15.7z M251.2,10.2c0-0.3,0.3-0.6,0.6-0.6c0.3,0,0.6,0.3,0.6,0.6v2.4l-1.2,1.9L251.2,10.2C251.2,10.2,251.2,10.2,251.2,10.2
			L251.2,10.2L251.2,10.2z M249.5,1.4c1,0,2,0.1,3,0.2V7L251,3.2l-1.5,3.9V1.4L249.5,1.4z M249.5,9V8.6l1.5-3.9l1.5,3.8v0.6
			c-0.2-0.1-0.4-0.2-0.6-0.2c-0.3,0-0.7,0.2-0.9,0.4c-0.2-0.3-0.5-0.4-0.9-0.4c-0.2,0-0.4,0.1-0.6,0.2L249.5,9L249.5,9z M249.5,10.2
			c0-0.3,0.2-0.6,0.5-0.7s0.6,0.2,0.7,0.5c0,0,0,0.1,0,0.1v4.3l-1.2-1.9L249.5,10.2L249.5,10.2z M250.7,15.5v1.4
			c-0.2-0.2-0.5-0.3-0.7-0.3c-0.3,0-0.6,0.2-0.8,0.4c-0.4-0.4-1-0.5-1.4-0.2v-1.3l1.5-2.2L250.7,15.5L250.7,15.5z M247.7,14.4V9
			c0-0.3,0.2-0.6,0.5-0.7c0.3,0,0.6,0.2,0.7,0.5c0,0,0,0.1,0,0.1v3.7L247.7,14.4L247.7,14.4z M245.9,1.4h2.9v4l-1.5-3.8l-1.5,3.8
			L245.9,1.4z M245.9,6.9l1.5-3.8l1.5,3.8v1c-0.2-0.1-0.4-0.2-0.6-0.2c-0.3,0-0.7,0.2-0.9,0.4c-0.4-0.4-1-0.5-1.5-0.2
			C245.9,8,245.9,6.9,245.9,6.9z M245.9,8.9c0-0.3,0.3-0.6,0.6-0.6c0.3,0,0.6,0.3,0.6,0.6c0,0,0,0.1,0,0.1v5.5l-1.2-1.9L245.9,8.9
			L245.9,8.9z M247.1,15.5v1.3c-0.2-0.1-0.4-0.2-0.6-0.2c-0.3,0-0.7,0.2-0.9,0.4c-0.2-0.3-0.5-0.4-0.8-0.4c-0.3,0-0.5,0.1-0.7,0.3
			v-1.3l1.5-2.3L247.1,15.5L247.1,15.5z M244.2,14.5v-4.3c0-0.3,0.2-0.6,0.6-0.7c0.3,0,0.6,0.2,0.7,0.6c0,0,0,0.1,0,0.1v2.4
			L244.2,14.5L244.2,14.5z M242.4,1.6c1-0.1,2-0.2,3-0.2V7l-1.5-3.8l-1.5,3.9V1.6L242.4,1.6z M242.4,8.7l1.5-3.9l1.5,3.8v0.6
			C245.2,9.1,245,9,244.7,9c-0.3,0-0.7,0.2-0.9,0.4C243.6,9.2,243.3,9,243,9c-0.2,0-0.4,0.1-0.6,0.2L242.4,8.7L242.4,8.7z
			 M242.4,10.2c0-0.3,0.3-0.6,0.6-0.6s0.6,0.3,0.6,0.6v4.3l-1.2-1.9L242.4,10.2L242.4,10.2z M243.6,15.6v1.4
			c-0.2-0.2-0.5-0.3-0.7-0.3c-0.3,0-0.6,0.2-0.8,0.4c-0.2-0.3-0.6-0.4-0.9-0.4c-0.2,0-0.5,0.1-0.7,0.2v-1.1l1.6-2.5L243.6,15.6
			L243.6,15.6z M240.5,14.7v-3c0.4-0.1,0.9-0.1,1.3-0.2v1.1L240.5,14.7z M213.9,61.9h-1.4c0.7-0.3,1-1.2,0.6-1.9
			c-0.1-0.3-0.4-0.5-0.6-0.6h1.4L213.9,61.9z M211.2,59.4c-0.7,0.3-1,1.2-0.6,1.9c0.1,0.3,0.4,0.5,0.6,0.6h-1.3v-2.5H211.2z
			 M209.9,58.5v-2.7c0-0.2,0.1-0.4,0.2-0.5c0.2-0.1,0.4-0.2,0.6-0.2c0.4,0,0.8,0.3,0.8,0.7v2.7L209.9,58.5L209.9,58.5z M210.7,60.6
			c0-0.6,0.5-1.1,1.1-1.1s1.1,0.5,1.1,1.1c0,0.6-0.5,1.1-1.1,1.1C211.2,61.7,210.7,61.2,210.7,60.6z M213.9,58.5h-1.7v-2.7
			c0-0.4,0.4-0.7,0.8-0.7c0.2,0,0.5,0.1,0.6,0.2c0.2,0.1,0.3,0.3,0.3,0.5L213.9,58.5L213.9,58.5z M213.9,54.9
			c-0.3-0.2-0.6-0.3-0.9-0.3c-0.4,0-0.8,0.2-1.1,0.5c-0.3-0.3-0.7-0.5-1.1-0.5c-0.3,0-0.6,0.1-0.9,0.3v-1.4l1.9-3l2,3L213.9,54.9
			L213.9,54.9z M213.9,52.5l-1.7-2.6v-1.1h0.5v-0.6h-0.5v-0.5h-0.6v0.5h-0.5v0.6h0.5v1.1l-1.7,2.5v-4.1l3.9-5.6V52.5z M213.9,41.7
			l-3.9,5.6v-6.8l-0.4-0.7l-0.4,0.7v22.2h4.8v12.8c-9.8-14.1-9.8-32.8,0-46.9L213.9,41.7L213.9,41.7z M213.9,25.7v1.9
			c-10.6,14.6-10.6,34.3,0,48.9v13.6c-0.8-0.7-1.6-1.4-2.3-2.2c-19.8-19.8-19.8-51.9,0-71.8c8.1-8.1,18.8-13.3,30.2-14.5v9.3
			c-0.4,0.1-0.9,0.1-1.3,0.2V4.4L240,3.8l-0.4,0.6v6.9c-2,0.4-3.9,0.9-5.8,1.5v-1.5l-0.6-1.1l-0.7,1.1v2c-1.3,0.5-2.5,1.1-3.8,1.7
			v-1.5l-0.9,1.4v0.6c-2.9,1.5-5.6,3.4-8,5.6v-1.5l-0.9,1.3v1c-1.4,1.3-2.6,2.6-3.8,4.1v-0.3l-0.6-1.1L213.9,25.7L213.9,25.7z
			 M227,91.2v-0.6h0.6v-0.6h0.6v0.6h0.6v0.6h-0.6v0.5h-0.6v-0.6L227,91.2z M215.2,89.6v-0.9h16.3l1,0.9H215.2z M224.2,91.2v-0.6h0.6
			v-0.6h0.6v0.6h0.6v0.6h-0.6v0.5h-0.6v-0.6L224.2,91.2L224.2,91.2z M221.4,91.2v-0.6h0.6v-0.6h0.6v0.6h0.6v0.6h-0.6v0.5H222v-0.6
			L221.4,91.2z M218.7,91.2v-0.6h0.6v-0.6h0.6v0.6h0.6v0.6h-0.6v0.5h-0.6v-0.6L218.7,91.2z M221.2,29.7l1,1.6V37h-0.8v-4.7l0.3-0.4
			l-0.6-0.9l-0.6,0.9l0.3,0.4V37h-1.1v-5.3L221.2,29.7L221.2,29.7z M219.9,30.7v-8.9c0.3-0.3,0.7-0.6,1.1-0.9v8.2
			C220.9,29.1,219.9,30.7,219.9,30.7z M227.9,31.7V37h-1.1v-4.7l0.3-0.4l-0.6-0.9l-0.6,0.9l0.3,0.4V37h-0.8v-5.7l1.1-1.6L227.9,31.7
			z M226.8,29.1V16.7c0.3-0.2,0.7-0.4,1.1-0.6v14.5L226.8,29.1L226.8,29.1z M225.8,54.1v1.1c-0.5-0.1-1-0.1-1.5-0.2v0l1.8-2.7
			l1.7,2.7v0.8c-0.5-0.2-1-0.4-1.5-0.5v-1.2L225.8,54.1L225.8,54.1z M224.3,54v-7.6c0.2-0.2,0.4-0.3,0.7-0.3c0.4,0,0.8,0.3,0.8,0.7
			v5L224.3,54z M226.4,51.7v-5c0-0.4,0.3-0.7,0.7-0.7c0,0,0,0,0,0c0.2,0,0.4,0.1,0.5,0.2c0.1,0.1,0.2,0.3,0.2,0.5V54L226.4,51.7
			L226.4,51.7z M227.1,45.5c-0.4,0-0.8,0.2-1,0.5c-0.3-0.3-0.7-0.5-1.1-0.5c-0.2,0-0.5,0.1-0.7,0.2v-0.3l1.7-4.8l1.8,5.1v0.1
			C227.6,45.6,227.3,45.5,227.1,45.5L227.1,45.5L227.1,45.5z M226,38.9l-1.7,4.8v-6.1h3.6v6.4L226,38.9z M226.2,23.5l-1.1-1.6
			l-1,1.6v-5c0.7-0.5,1.4-0.9,2.1-1.4L226.2,23.5L226.2,23.5z M225.2,22.9l1,1.6v4.6l-0.8,1.2v-4h0.5v-0.6h-0.5v-1.1h-0.6v1.1h-0.5
			v0.6h0.5v4l-0.8-1.2v-4.6C224.1,24.5,225.2,22.9,225.2,22.9z M224.9,31.3V37h-0.7v-4.7l0.3-0.4l-0.6-0.9l-0.6,0.9l0.3,0.4V37h-0.8
			v-5.7l1-1.6L224.9,31.3L224.9,31.3z M223.6,23.4l-1-1.6l-1,1.6v-3c0.7-0.6,1.4-1.1,2.1-1.6L223.6,23.4L223.6,23.4z M222.5,22.9
			l1,1.6v4.6l-0.8,1.2v-4h0.6v-0.6h-0.6v-1.1h-0.6v1.1h-0.5v0.6h0.5v4l-0.8-1.2v-4.6L222.5,22.9L222.5,22.9z M223.4,37.5v6.3
			l-1.8-4.9l-1.8,5v-6.3H223.4z M221.6,40.6l1.8,4.9v0.2c-0.2-0.1-0.4-0.2-0.7-0.2c-0.4,0-0.8,0.2-1.1,0.5c-0.3-0.3-0.6-0.5-1.1-0.5
			c-0.3,0-0.5,0.1-0.7,0.2v-0.2L221.6,40.6L221.6,40.6z M223.4,46.4V54l-1.5-2.3v-5c0-0.4,0.4-0.7,0.8-0.7
			C223,46,223.2,46.2,223.4,46.4L223.4,46.4L223.4,46.4z M220.6,46.1c0.4,0,0.7,0.3,0.8,0.7v5l-1.5,2.3v-7.3
			C219.9,46.3,220.2,46.1,220.6,46.1L220.6,46.1L220.6,46.1z M221.6,52.3l1.8,2.7c-0.5,0-1,0.1-1.5,0.1v-1.1h-0.6v1.2
			c-0.5,0.1-1,0.3-1.5,0.5V55L221.6,52.3z M223.8,55.6c4,0,6.1,1.8,7.3,3.7c0.5,0.9,0.9,1.9,1.2,2.9c-0.3-0.2-0.6-0.2-0.9-0.2h-0.1
			c-0.4,0-0.8,0.2-1.1,0.4c-0.3-1.5-0.9-2.8-1.9-3.9c-1.1-1.3-2.6-2.2-4.1-2.3h-0.3c-0.2,0-0.4,0-0.7,0.1c-1.5,0.3-2.8,1.1-3.8,2.3
			c-1,1.1-1.7,2.4-2,3.9c-0.3-0.3-0.8-0.4-1.2-0.4c-0.3,0-0.6,0.1-0.8,0.2c0.2-1,0.6-1.9,1.2-2.8C217.8,57.4,219.9,55.6,223.8,55.6
			L223.8,55.6L223.8,55.6z M231.7,67.7v-5.1c0.2,0,0.3,0.1,0.4,0.2c0.2,0.1,0.3,0.3,0.3,0.6v17l-0.8,1.4L231.7,67.7L231.7,67.7
			L231.7,67.7z M230.2,56v1.3c-0.4-0.4-0.9-0.8-1.4-1.1l1.7-2.6l2,3v4.2c-0.2-0.6-0.5-1.2-0.9-1.8c-0.2-0.4-0.5-0.7-0.8-1.1V56
			L230.2,56L230.2,56z M230.8,53v-6.3c0-0.4,0.4-0.7,0.8-0.7c0.2,0,0.4,0.1,0.6,0.2c0.2,0.1,0.2,0.3,0.2,0.5v8.9L230.8,53L230.8,53z
			 M232.5,45.7c-0.3-0.2-0.6-0.3-0.9-0.3c-0.4,0-0.8,0.2-1.1,0.5c-0.3-0.3-0.6-0.5-1-0.5c-0.3,0-0.5,0.1-0.7,0.2l1.9-5.1L232.5,45.7
			z M230.9,39.6v-25c0.5-0.2,1.1-0.5,1.6-0.7v30.1L230.9,39.6L230.9,39.6z M230.3,39.8l-1.6,4.3V15.7c0.5-0.3,1-0.5,1.6-0.8V39.8
			L230.3,39.8z M229.5,46c0.4,0,0.7,0.3,0.7,0.7V53l-1.5,2.3v-8.6C228.8,46.3,229.1,46.1,229.5,46L229.5,46L229.5,46z M225.7,85.7
			v0.6l-0.1,0.1v-2.9c0-0.5,0.1-1.1,0.1-1.7l0.1,0.1l0.1,0.1c0.1,0.1,0.1,0.2,0.1,0.3c-0.1,0.5-0.2,1.1-0.3,1.7
			C225.7,84.5,225.7,85.1,225.7,85.7L225.7,85.7z M223.7,85.5l-0.2-0.1l-0.2-0.1l-0.1-1.5l1.8,0.3c0,0.1,0,0.2,0,0.2v0.1l-1.3-0.2
			L223.7,85.5L223.7,85.5z M221.7,84.9c-0.7-0.2-1.3-0.4-1.9-0.6c-0.2-0.1-0.4-0.2-0.6-0.2c0-0.1,0-0.2-0.1-0.2
			c0.9,0.2,3,0.7,3.6,0.9l0,0.5C222.5,85.1,222.1,85,221.7,84.9z M222,85.5v2.3h-1v-2.6L222,85.5L222,85.5z M220.4,85.1v2.8h-1v-3.1
			l0.1,0C219.8,84.8,220.1,85,220.4,85.1L220.4,85.1L220.4,85.1z M218.4,82.1c-0.2-0.1-0.3-0.1-0.5-0.1V63.4c0-0.2,0.1-0.5,0.3-0.6
			c0.2-0.1,0.4-0.2,0.6-0.3v19.8L218.4,82.1z M218.9,85.6v1.2l-0.2-0.6L218.9,85.6L218.9,85.6z M218.2,86.3l0.3,1.2
			c-0.3-0.1-0.6-0.3-0.8-0.5c-0.3-0.3-0.4-0.7-0.4-1.1v-0.1c0-0.4,0.1-0.8,0.2-1.2c0.1-0.4,0.2-0.7,0.2-0.7c0-0.1,0-0.1,0-0.2
			c0,0,0-0.1-0.1-0.3c-0.1-0.2-0.1-0.4-0.1-0.6c0-0.1,0-0.1,0-0.2c0.1-0.2,0.1-0.2,0.3-0.2c0.2,0,0.3,0.1,0.4,0.1l0.3,0.1
			c-0.1,0.2-0.1,0.4-0.1,0.6c0,0.3,0.1,0.6,0.2,0.9c0,0.1-0.1,0.1-0.1,0.2c-0.1,0.3-0.4,1.7-0.4,1.7
			C218.1,86.2,218.1,86.3,218.2,86.3L218.2,86.3z M217.1,83.8c-0.2,0.7-0.3,1.3-0.4,2v0.1c0,0.5,0.2,1.1,0.5,1.5
			c0.2,0.2,0.4,0.3,0.6,0.4h-1.3V62.5c0.4,0.1,0.7,0.4,0.8,0.9V82c-0.1,0.1-0.2,0.2-0.3,0.3c-0.1,0.1-0.1,0.3-0.1,0.5
			C216.9,83.2,217,83.5,217.1,83.8L217.1,83.8L217.1,83.8z M218,62.2c0.3-1.3,0.9-2.5,1.8-3.4c0.4-0.5,0.9-0.9,1.5-1.3
			c-0.2,0.3-0.3,0.7-0.5,1.1c-0.3,1.2-0.4,2.5-0.4,3.7c-0.4-0.3-0.8-0.4-1.3-0.4C218.7,61.9,218.3,62,218,62.2L218,62.2L218,62.2z
			 M230.8,68.2l-0.5,0.4l-0.5-0.4H230.8L230.8,68.2z M230.3,67.7v-4.3c0-0.2,0.1-0.5,0.3-0.6c0.2-0.1,0.3-0.2,0.5-0.3v5.2
			L230.3,67.7z M230,68.8l-0.9,0.7l-0.9-0.7l0.8-0.6h0.3L230,68.8L230,68.8z M228.7,79.7v-4.4c0.2,0,0.4,0,0.5-0.1
			c0.2,0,0.3-0.1,0.4-0.1v11.6c-0.3-0.1-0.7-0.1-0.9-0.2h0v-3.3c0.3-0.7,0.4-1.4,0.5-2.1C229.3,80.6,229.1,80.1,228.7,79.7
			L228.7,79.7z M229.5,74.6c-0.3,0.1-0.6,0.1-0.9,0.1l-0.5,0l-0.3-0.8c0-0.1,0-0.2,0.3-0.4c0.4-0.2,0.8-0.4,1.2-0.5c0,0,0.1,0,0.1,0
			c0.1,0,0.1,0,0.2,0l-0.1,0c-0.2,0.1-0.4,0.2-0.5,0.2c-0.1,0-0.2,0.1-0.2,0.1c-0.1,0.1-0.2,0.2-0.2,0.3c0,0,0,0.1,0,0.1
			c0,0.1,0.1,0.2,0.2,0.2c0.1,0,0.1,0.1,0.2,0c0.3,0,0.6-0.1,0.8-0.3c0.4-0.2,0.7-0.3,1.1-0.4v0c0,0.1-0.1,0.1-0.1,0.2
			c-0.2,0.2-0.4,0.3-0.7,0.4C229.8,74.4,229.5,74.5,229.5,74.6L229.5,74.6z M226.3,84c0-0.4,0.1-0.8,0.2-1.3l0.5,0.1l-0.6,3.3h-0.1
			v-0.5C226.3,85.1,226.3,84.5,226.3,84z M221.7,69.7l0.2-0.1c0.1,0,0.2-0.1,0.3-0.1c0.1,0.1,0.1,0.2,0.2,0.4c0.2,0.4,0.5,0.7,1,0.8
			c0.2,0,0.4,0.1,0.6,0.1c0.3,0,0.6,0,0.9-0.1c0.1,0.1,0.2,0.2,0.4,0.4c0.3,0.5,0.5,1.2,0.5,1.8l-1,0.4l0,0c-0.4-0.4-0.9-1-1.8-2.2
			l-0.4,0.4l0.8,1l-1.7,1.3c-0.1-0.2-0.1-0.3-0.2-0.4c-0.1-0.2-0.2-0.4-0.2-0.7c-0.1-0.4-0.2-0.8-0.2-1.1c0-0.2,0-0.5,0.1-0.7
			C221.3,70.2,221.6,69.8,221.7,69.7L221.7,69.7L221.7,69.7z M221,69.7v-1.2c0.1,0.1,0.1,0.1,0.2,0.1c0.3,0.1,0.6,0.2,0.9,0.2h0.1v0
			c-0.3,0.1-0.5,0.2-0.7,0.3c0,0-0.1,0-0.1,0.1C221.3,69.3,221.2,69.4,221,69.7L221,69.7L221,69.7z M223.6,69.4
			c0.3,0.1,0.5,0.1,0.8,0.1h0.3l0,0.6h-0.1c-0.2,0-0.4,0.1-0.6,0.1c-0.2,0-0.3,0-0.5,0c-0.3-0.1-0.5-0.3-0.6-0.5
			c-0.1-0.1-0.1-0.2-0.2-0.3c0,0,0-0.1,0-0.1v0C223,69.2,223.3,69.3,223.6,69.4L223.6,69.4L223.6,69.4z M223.1,68.6
			c0.1-0.1,0.3-0.2,0.4-0.3l0.1,0.3l0.1,0.2C223.4,68.7,223.3,68.7,223.1,68.6L223.1,68.6L223.1,68.6z M228.1,67.7h-1v-4.3
			c0-0.2,0.1-0.5,0.3-0.6c0.2-0.1,0.4-0.2,0.6-0.3L228.1,67.7z M228.5,68.3l-0.5,0.4l-0.5-0.4H228.5L228.5,68.3z M227.8,68.9
			l-0.6,0.5v-1L227.8,68.9L227.8,68.9z M228,69l0.9,0.7l-0.9,0.7l-0.8-0.6v-0.1L228,69L228,69z M227.8,70.6l-0.6,0.5v-0.9
			L227.8,70.6L227.8,70.6z M228,70.8l0.9,0.7l-1,0.7l-0.8-0.6v-0.2L228,70.8L228,70.8z M227.5,73.2c-0.1-0.1-0.1-0.1-0.1-0.2
			l0.6-0.4l0.3,0.2c-0.2,0.1-0.4,0.2-0.6,0.3C227.6,73.1,227.6,73.2,227.5,73.2L227.5,73.2L227.5,73.2z M228.1,75.3V79l-1-1.1v-2.2
			L228.1,75.3z M227.7,72.4l-0.4,0.3c-0.1-0.2-0.1-0.4-0.1-0.6v-0.1L227.7,72.4z M227.2,74.2l-2,0.7l0.2-0.5l1.7-0.5L227.2,74.2
			L227.2,74.2z M226.3,68.4c0-0.1-0.1-0.1-0.1-0.2c0-0.1,0-0.2,0-0.3c0-0.1,0-0.1,0-0.2c0,0,0,0,0-0.1c0.1-0.1,0.2-0.2,0.2-0.3
			l0.1-0.1v6.1l-0.3,0.1l-0.1-0.6v-0.1c0-0.8-0.2-1.5-0.6-2.2v-1.3h0c0.1,0,0.3,0,0.4,0c0.2-0.1,0.3-0.2,0.4-0.4c0-0.1,0-0.1,0-0.2
			C226.4,68.7,226.4,68.6,226.3,68.4L226.3,68.4L226.3,68.4z M225.7,73.7l-0.6,0.1l-0.2-0.2l0.7-0.3L225.7,73.7L225.7,73.7z
			 M226.6,66.5l-0.1-0.2c0-0.1,0-0.1-0.1-0.2v0c0-0.1,0.1-0.3,0.1-0.4c0-0.1,0-0.3-0.1-0.4c-0.1-0.1-0.2-0.3-0.3-0.4
			c0.1-0.2,0.2-0.5,0.2-0.7c0-0.3-0.1-0.7-0.4-0.9c-0.1-0.1-0.2-0.1-0.3-0.1v-0.7c0.2,0,0.4,0.1,0.6,0.3c0.2,0.1,0.3,0.4,0.3,0.6
			L226.6,66.5L226.6,66.5z M225.9,65.6L225.9,65.6c0,0,0,0.2-0.1,0.4c0,0,0,0,0,0c-0.2,0.1-0.4,0.3-0.4,0.5c0.2-0.1,0.4-0.1,0.5-0.1
			l0.2,0.4v0l-0.1,0.1l0,0l-0.5,0.2c0,0.1,0.1,0.2,0.1,0.3c0,0.2-0.1,0.3-0.4,0.6l0.3,0.5l0.1-0.1c0,0.1,0,0.1,0.1,0.1s0,0.1,0,0.1
			c-0.1,0-0.1,0-0.2,0h-0.2c-0.1,0-0.2,0-0.8,0h-0.2c-0.1,0-0.1-0.1-0.2-0.1c-0.1-0.2-0.2-0.4-0.2-0.6c0.3-0.1,0.5-0.3,0.7-0.5
			c0.7-0.6,0.8-1.7,1-2.3C225.8,65.5,225.9,65.6,225.9,65.6L225.9,65.6L225.9,65.6z M222,75.4c0.4,0.3,0.8,0.6,1.3,0.9h-1v0
			L222,75.4L222,75.4L222,75.4z M221.6,74.1l1.8-1.4l0.2,0.3l-1.6,1.6L221.6,74.1L221.6,74.1z M223,75.4c-0.2-0.1-0.4-0.3-0.5-0.3
			l1.6-1.5l0.1,0.1l0.2,0.2L223,75.4L223,75.4z M224.7,74.1L224.7,74.1l-0.5,2l-0.6-0.4l-0.1-0.1L224.7,74.1z M221,74.3l0.3,0.7
			l0.5,1.4c0,0.1,0,0.2,0,0.3c0,0.1,0,0.3-0.1,0.4c-0.4,0.9-0.6,1.8-0.5,2.8c0,0.3,0.1,0.6,0.3,0.9c0.1,0.1,0.2,0.1,0.3,0.2
			c0,0.1,0,0.2,0.1,0.4c0.1,0.5,0.3,1,0.5,1.5c-0.3-0.1-0.6-0.2-0.9-0.3c-0.1,0-0.2,0-0.4,0H221L221,74.3L221,74.3z M221.8,79.1
			c0.4-0.1,1.4-0.3,2-0.4c0.5-0.1,1.2-0.3,1.5-0.5c0,0.1,0,0.2,0,0.3c-0.4,0.1-1.3,0.4-1.8,0.5s-1.4,0.3-1.9,0.4
			C221.8,79.3,221.8,79.2,221.8,79.1L221.8,79.1L221.8,79.1z M223.7,78.1c-0.5,0.1-1.3,0.3-1.8,0.4c0.1-0.4,0.2-0.8,0.4-1.2
			c0.1-0.2,0.1-0.3,0.1-0.5h1.9l0.1,0.1l0.3,0.2c0.2,0.1,0.4,0.3,0.5,0.5c0,0,0,0.1,0,0.1C224.8,77.8,224.2,78,223.7,78.1
			L223.7,78.1L223.7,78.1z M224.8,76.1l0.2-0.5l2.5-0.9l0.1,0.2L224.8,76.1L224.8,76.1z M226.5,76l0.2-0.1v1.2
			c-0.1-0.1-0.1-0.2-0.2-0.3V76z M226.8,78.4l1.2,1.4l-0.4,0.3l-1.2-1.4L226.8,78.4L226.8,78.4z M227.2,80.4l-0.3,0.2l-1.1-1
			c0,0,0-0.1,0-0.1c0.1-0.2,0.1-0.4,0.1-0.6h0L227.2,80.4z M226.5,81l-0.4,0.3c-0.1-0.1-0.2-0.2-0.3-0.3v-0.7L226.5,81L226.5,81z
			 M227.6,83l0.6,0.1c-0.1,0.2-0.2,0.5-0.3,0.7c-0.3,0.9-0.6,1.7-0.8,2.1L227,86L227.6,83L227.6,83z M228.2,84.8v1.4
			c-0.1-0.1-0.3-0.2-0.4-0.3C227.8,85.7,228,85.3,228.2,84.8L228.2,84.8L228.2,84.8z M226.6,82.2c0-0.1-0.1-0.3-0.1-0.4l2-1.6
			c0.1,0.1,0.1,0.2,0.2,0.3l-1.7,1.3l1.6,0.4l-0.1,0.3C228.3,82.6,226.6,82.2,226.6,82.2z M228.1,81.6l0.6-0.4
			c0,0.2-0.1,0.4-0.1,0.5L228.1,81.6z M230.1,73.2C230.1,73.2,230.1,73.2,230.1,73.2c0-0.2-0.1-0.3-0.1-0.4l0.3-0.2l0.6,0.4
			C230.6,73,230.4,73.1,230.1,73.2L230.1,73.2L230.1,73.2z M229.7,72.6c-0.1-0.1-0.3-0.1-0.4-0.1c-0.1,0-0.2,0-0.3,0
			c-0.1,0-0.3,0.1-0.4,0.1l-0.4-0.3l0.9-0.7l0.9,0.7L229.7,72.6L229.7,72.6z M229.1,71.3l-0.9-0.7l0.9-0.7l0.9,0.7L229.1,71.3
			L229.1,71.3z M229.7,67.7h-1v-5.2c0.2,0,0.4,0.1,0.6,0.3c0.2,0.1,0.3,0.4,0.3,0.6L229.7,67.7z M228.4,61.9c-0.5,0-0.9,0.1-1.3,0.4
			c0-1.3-0.1-2.5-0.4-3.8c-0.1-0.4-0.3-0.7-0.5-1.1c0.6,0.4,1.1,0.8,1.5,1.4c0.9,1,1.5,2.2,1.7,3.4C229.3,62,228.9,61.9,228.4,61.9
			L228.4,61.9L228.4,61.9z M226.6,62.3c-0.4-0.3-0.8-0.4-1.3-0.4c-0.4,0-0.9,0.1-1.2,0.3v-5.6c1.2,0.1,1.8,0.8,2.2,2
			C226.5,59.9,226.6,61.1,226.6,62.3L226.6,62.3L226.6,62.3z M225.1,62.5v0.6c-0.2,0-0.4,0-0.5,0.1c-0.1-0.1-0.3-0.1-0.4-0.1
			c0.1-0.1,0.2-0.2,0.3-0.3C224.6,62.6,224.8,62.5,225.1,62.5L225.1,62.5L225.1,62.5z M224.4,63.7L224.4,63.7l0.2,0
			c0.1-0.1,0.3-0.1,0.5-0.1c0.2,0,0.4,0.1,0.5,0.2c0.1,0.1,0.1,0.2,0.1,0.3c-0.3-0.1-0.6-0.1-0.9-0.1h-0.3v0.6h0.2
			c0.2,0,0.5,0,0.7,0.1c-0.1,0.1-0.2,0.2-0.3,0.2l-0.1,0c-0.1,0-0.3,0-0.4,0h-0.3v0.6h0.3c0.1,0,0.1,0,0.2,0
			c-0.1,0.6-0.3,1.4-0.8,1.8s-0.8,0.5-0.9,0.5h-0.3l-0.1,0.2c-0.1,0.2-0.3,0.3-0.4,0.3c0-0.2,0.1-0.5,0.2-0.7l-0.5-0.3
			c-0.2,0.3-0.3,0.6-0.3,0.9v0.1c-0.1,0-0.1,0-0.2,0v-0.2c0-0.3,0.1-0.7,0.3-1l-0.5-0.3c-0.2,0.4-0.4,0.8-0.4,1.2
			c-0.1-0.2-0.2-0.4-0.2-0.6c0-0.3,0.1-0.6,0.3-0.8l0.1-0.1v-0.2c-0.1-0.7,0.1-1.4,0.6-2c0.4-0.5,1-0.8,1.6-0.8
			C223.9,63.6,224.2,63.6,224.4,63.7L224.4,63.7L224.4,63.7z M221,65.3v-1.8c0-0.2,0.1-0.5,0.3-0.6c0.2-0.1,0.4-0.2,0.6-0.3v1.1
			c-0.1,0.1-0.2,0.2-0.3,0.3C221.3,64.3,221.1,64.7,221,65.3L221,65.3L221,65.3z M222.5,63.3v-0.7c0.2,0,0.5,0.1,0.7,0.2
			c0.1,0.1,0.2,0.2,0.3,0.3C223.1,63,222.8,63.1,222.5,63.3L222.5,63.3z M223.5,62.3c-0.4-0.2-0.8-0.3-1.2-0.3
			c-0.5,0-0.9,0.1-1.3,0.4c0-1.2,0.1-2.4,0.4-3.6c0.4-1.2,0.9-1.9,2.1-2.1C223.5,56.7,223.5,62.3,223.5,62.3z M220.4,72.7v9.8
			c-0.2,0-0.4,0-0.6,0.1c-0.1,0-0.2,0-0.3,0l-0.1,0v-20c0.2,0,0.4,0.1,0.6,0.3c0.2,0.1,0.3,0.4,0.3,0.6v7.1
			c-0.1,0.3-0.2,0.6-0.2,0.9C220.2,71.9,220.3,72.3,220.4,72.7C220.4,72.7,220.4,72.7,220.4,72.7z M219.1,83l0.3,0.1
			c0.2,0.1,0.4,0.1,0.5,0.1c0.4,0,0.8-0.1,1.2-0.1c0.1,0,0.2,0,0.3,0c0.4,0.1,0.7,0.2,1,0.4c0.1,0.1,0.2,0.1,0.3,0.2l0,0.5
			c-0.8-0.2-2.8-0.7-3.6-0.9C219,83.1,219,83,219.1,83L219.1,83L219.1,83z M223.4,83.3l-0.3,0c-0.1-0.2-0.2-0.4-0.3-0.8
			c-0.2-0.4-0.3-0.9-0.4-1.3l-0.1-0.3l0.5-0.1L223.4,83.3L223.4,83.3z M223.4,80.6l0.5-0.1l0.1,0l0.3,3l-0.3,0L223.4,80.6z
			 M222.5,85.7l0.3,0.1l0.1,0.1c0.1,0,0.3,0.1,0.6,0.2v1.8h-1L222.5,85.7L222.5,85.7z M224.8,85c0,0.1,0,0.1-0.1,0.2
			c0,0.1-0.1,0.2-0.2,0.3c-0.1,0-0.1,0-0.2,0h-0.1l-0.1-0.6L224.8,85L224.8,85z M224.1,86.1c0.1,0,0.2,0,0.3,0c0.2,0,0.3,0,0.5-0.1
			c0.1,0,0.1-0.1,0.2-0.2v2h-1L224.1,86.1L224.1,86.1z M225.1,83.6l-0.2,0l-0.3-3.2c0.2-0.1,0.4-0.1,0.6-0.2l0.1,0c0,0.4,0,1,0,1.6
			S225.1,83,225.1,83.6L225.1,83.6L225.1,83.6z M224.7,79.6c-1,0.3-2.6,0.7-2.7,0.7c0,0-0.1,0-0.1,0c-0.1-0.1-0.1-0.2-0.1-0.3
			c0.4-0.1,1.4-0.3,2-0.4c0.5-0.1,1.2-0.3,1.7-0.5c0,0.1,0,0.2,0,0.3C225.2,79.5,225,79.6,224.7,79.6L224.7,79.6L224.7,79.6z
			 M225.2,76.5l0.7-0.3v0.3H225.2z M226,77.1c0.1,0.2,0.2,0.4,0.4,0.6l0.2,0.2l-0.5,0.4c0-0.4-0.1-0.7-0.3-1.1c0,0-0.1-0.1-0.1-0.1
			L226,77.1L226,77.1z M226.1,86.7c0.1,0,0.2,0,0.2,0c0.3,0,0.7-0.1,1-0.3c0,0,0.1,0,0.1,0h0.1c0.1,0.1,0.2,0.1,0.3,0.2
			c0.2,0.2,0.5,0.3,0.8,0.4c0.8,0.2,1.6,0.3,2.3,0.4c0,0.1,0,0.1-0.1,0.1c-0.2,0.1-0.3,0.1-0.5,0.1c-0.2,0-0.4,0-0.6,0
			c-0.6,0-1.2-0.1-1.8-0.1c-0.1,0-0.1,0-0.2,0c-0.6,0-1.3,0.1-1.9,0.2c0,0-0.1,0-0.1-0.2c0,0,0,0,0,0
			C225.9,87.2,226,86.9,226.1,86.7L226.1,86.7L226.1,86.7z M230.3,86.8v-12l0.1-0.1c0.3-0.1,0.5-0.3,0.8-0.5v12.7
			C230.9,86.9,230.6,86.9,230.3,86.8L230.3,86.8L230.3,86.8z M231,72.7l-0.5-0.4l0.6-0.5v0.3C231.2,72.3,231.1,72.5,231,72.7
			L231,72.7L231,72.7z M230.3,72.2l-0.9-0.7l0.9-0.7l0.9,0.7v0L230.3,72.2z M230.5,70.6l0.6-0.5v1L230.5,70.6z M230.3,70.4l-0.9-0.7
			l0.9-0.7l0.9,0.7v0L230.3,70.4L230.3,70.4z M230.5,68.8l0.6-0.5v1L230.5,68.8z M219,55.3l-1.5-2.3v-6.3c0-0.4,0.3-0.7,0.7-0.7
			c0,0,0,0,0,0c0.2,0,0.4,0.1,0.5,0.2c0.1,0.1,0.2,0.3,0.2,0.5L219,55.3L219,55.3z M219,44.1l-1.6-4.3V24.3c0.5-0.5,1-1.1,1.6-1.6
			V44.1z M219,45.7c-0.2-0.1-0.5-0.2-0.8-0.2c-0.4,0-0.8,0.2-1,0.5c-0.3-0.3-0.7-0.5-1.1-0.5c-0.3,0-0.6,0.1-0.8,0.2l1.9-5.2
			L219,45.7L219,45.7z M216.8,39.6l-1.7,4.6V26.9c0.5-0.7,1.1-1.3,1.7-2V39.6L216.8,39.6z M215.4,46.3c0.2-0.1,0.4-0.2,0.6-0.2
			c0.4,0,0.8,0.3,0.8,0.7V53l-1.7,2.7v-9C215.2,46.6,215.3,46.4,215.4,46.3L215.4,46.3L215.4,46.3z M217.2,53.6l1.7,2.6
			c-0.5,0.3-1,0.7-1.4,1.1V56h-0.6v1.9c-0.3,0.3-0.6,0.7-0.8,1.1c-0.4,0.6-0.7,1.2-0.9,1.9v-4.1L217.2,53.6L217.2,53.6z M216,62.5
			v25.3h-0.9V63.4C215.2,62.9,215.5,62.5,216,62.5L216,62.5L216,62.5z M232.1,88.1V83l0.7-1.2v6.9L232.1,88.1z M247.4,102.8
			c-11.9,0-23.5-4.2-32.6-11.9h2.2l1.6,1.4h10.3l1.5-1.3h2.3c9.5,3.6,20,3.6,29.5,0h2.3l1.5,1.3h10.2l1.6-1.3h2.4
			C270.9,98.6,259.4,102.8,247.4,102.8L247.4,102.8L247.4,102.8z M268.3,29.7l1,1.6V37h-0.8v-4.7l0.3-0.4l-0.6-0.9l-0.6,0.9l0.3,0.4
			V37h-1v-5.3L268.3,29.7L268.3,29.7z M267,30.6V16.1c0.3,0.2,0.7,0.4,1,0.6v12.4L267,30.6L267,30.6z M275,31.7V37h-1.1v-4.7
			l0.3-0.4l-0.6-0.9l-0.6,0.9l0.3,0.4V37h-0.8v-5.7l1-1.6L275,31.7L275,31.7z M273.9,29.1v-8.2c0.4,0.3,0.7,0.6,1.1,1v8.9
			L273.9,29.1L273.9,29.1z M272.9,54.1v1.1c-0.5-0.1-1-0.1-1.5-0.1v0l1.8-2.7l1.8,2.8v0.7c-0.5-0.2-1-0.4-1.5-0.5v-1.2L272.9,54.1
			L272.9,54.1z M271.4,54v-7.6c0.2-0.2,0.4-0.3,0.7-0.3c0.4,0,0.8,0.3,0.8,0.7v5L271.4,54L271.4,54z M273.5,51.7v-5
			c0-0.4,0.3-0.7,0.7-0.7c0.2,0,0.4,0.1,0.6,0.2c0.1,0.1,0.2,0.2,0.2,0.4V54L273.5,51.7z M274.2,45.5c-0.4,0-0.8,0.2-1,0.5
			c-0.3-0.3-0.7-0.5-1.1-0.5c-0.2,0-0.5,0.1-0.7,0.2v-0.1l1.8-5l1.8,5v0.2C274.8,45.6,274.5,45.5,274.2,45.5L274.2,45.5L274.2,45.5z
			 M273.2,38.9l-1.8,5v-6.3h3.6v6.4L273.2,38.9L273.2,38.9z M273.3,23.4l-1-1.6l-1,1.6v-4.6c0.7,0.5,1.4,1,2.1,1.6L273.3,23.4
			L273.3,23.4z M272.3,22.9l1,1.6v4.6l-0.8,1.2v-4h0.5v-0.6h-0.5v-1.1H272v1.1h-0.5v0.6h0.5v4l-0.8-1.2v-4.6L272.3,22.9L272.3,22.9z
			 M272,31.3V37h-0.8v-4.7l0.3-0.4l-0.6-0.9l-0.6,0.9l0.3,0.4V37h-0.8v-5.7l1-1.6L272,31.3z M270.7,23.4l-1-1.6l-1,1.6V17
			c0.7,0.4,1.4,0.9,2.1,1.4L270.7,23.4L270.7,23.4z M269.6,22.9l1,1.6v4.6l-0.8,1.2v-4h0.5v-0.6h-0.5v-1.1h-0.6v1.1h-0.5v0.6h0.5v4
			l-0.8-1.2v-4.6L269.6,22.9z M270.5,37.5v6.2l-1.7-4.8l-1.8,4.9v-6.3L270.5,37.5L270.5,37.5z M268.8,40.6l1.7,4.8v0.2
			c-0.2-0.1-0.4-0.2-0.7-0.2c-0.4,0-0.8,0.2-1.1,0.5c-0.2-0.3-0.6-0.5-1-0.5c-0.3,0-0.5,0.1-0.7,0.2v-0.2L268.8,40.6L268.8,40.6z
			 M270.5,46.4V54l-1.5-2.3v-5c0-0.4,0.4-0.7,0.8-0.7C270.1,46,270.4,46.2,270.5,46.4L270.5,46.4L270.5,46.4z M267,46.7
			c0-0.4,0.3-0.7,0.7-0.7c0.4,0,0.7,0.3,0.7,0.7l0,0v5l-1.5,2.2V46.7L267,46.7z M268.8,52.3l1.8,2.7v0c-0.5,0-1,0.1-1.5,0.1v-1.1
			h-0.6v1.2c-0.5,0.1-1,0.3-1.5,0.5v-0.8L268.8,52.3L268.8,52.3z M271,55.6c3.9,0,6.1,1.8,7.2,3.7c0.5,0.9,0.9,1.8,1.2,2.8
			c-0.3-0.1-0.5-0.2-0.8-0.2c-0.4,0-0.9,0.1-1.2,0.4c-0.3-1.4-1-2.8-2-3.9c-0.9-1-2.1-1.8-3.4-2.2c-0.4-0.1-0.7-0.2-1.1-0.2h-0.3
			c-1.5,0.1-3,1.1-4.1,2.3c-1,1.1-1.6,2.5-1.9,3.9c-0.3-0.3-0.7-0.4-1.2-0.4c-0.3,0-0.6,0.1-0.9,0.2c0.2-1,0.6-2,1.2-2.9
			C264.9,57.4,267,55.6,271,55.6L271,55.6L271,55.6z M274.3,91.2v-0.6h0.6V90h0.6v0.6h0.6v0.6h-0.6v0.6h-0.6v-0.6H274.3z
			 M262.4,89.6l1-0.9h16.3v0.9H262.4z M271.5,91.2v-0.6h0.6V90h0.6v0.6h0.6v0.6h-0.5v0.6h-0.6v-0.6H271.5L271.5,91.2z M268.7,91.2
			v-0.6h0.6V90h0.6v0.6h0.6v0.6h-0.6v0.6h-0.6v-0.6H268.7z M266,91.2v-0.6h0.6V90h0.6v0.6h0.6v0.6h-0.5v0.6h-0.6v-0.6H266L266,91.2z
			 M267.6,64.9v3.8c0,0.6-0.3,1.2-0.8,1.5l-0.1,0c-0.4-0.2-0.9-0.4-1.3-0.6c-0.1,0-0.2-0.1-0.4-0.1c-0.4,0-0.7,0.3-0.7,0.6h0
			l-0.1-0.1c-0.4-0.4-0.6-0.9-0.6-1.4v-3.8C263.6,64.9,267.6,64.9,267.6,64.9z M263.6,64.3v-1.8c0.5,0.1,0.8,0.4,0.9,0.9v0.9H263.6z
			 M278,84c-0.1-0.1-0.2-0.2-0.3-0.2l-0.2-0.1V63.4c0-0.5,0.4-0.9,0.8-0.9v25.3h-0.8v-1.6l0.4-0.8c0.2-0.3,0.3-0.6,0.3-1
			C278.2,84.3,278.1,84.1,278,84L278,84L278,84z M277.6,84.3c0,0,0,0.1,0,0.2c0,0.2-0.1,0.5-0.2,0.7l-1.3,2.4h-2.3c0,0,0-0.1,0-0.1
			c0.2-0.1,0.4-0.3,0.6-0.3C274.7,87,275,87,275,87l0.1,0l0.9-1.8c0.1-0.1,0.3-0.3,0.6-0.4c0.3-0.2,0.6-0.4,0.9-0.4
			C277.6,84.3,277.6,84.3,277.6,84.3L277.6,84.3L277.6,84.3z M276.9,87.3v0.5h-0.3L276.9,87.3z M273.3,87.9h-0.5v-3.3l1,0.2v2
			c-0.1,0.1-0.3,0.2-0.4,0.3c-0.1,0.1-0.1,0.3-0.1,0.5C273.3,87.7,273.3,87.8,273.3,87.9L273.3,87.9L273.3,87.9z M272.1,83.8
			l0.2-0.5l3.6,1.3l-0.2,0.1L272.1,83.8L272.1,83.8z M269.9,82.3c0,0,0-0.1,0-0.1V82l2.2,0.2l-0.5,1.4l-0.4-0.1h-0.1l0.3-1
			L269.9,82.3L269.9,82.3z M270,87.2V87c0-0.3,0-0.5-0.1-0.8c-0.1-0.3-0.1-0.6-0.1-0.9v-0.6c0-0.4,0-0.7,0-1l0.1,0.1
			c0.2,0.1,0.5,0.2,0.8,0.3v3.8h-0.9C269.9,87.7,270,87.4,270,87.2L270,87.2L270,87.2z M264.4,87.8h-0.8V71.4
			c0.1,0.1,0.3,0.2,0.5,0.3l0.4,0.2v14.8c-0.1,0-0.3,0.1-0.3,0.2c0,0.1,0,0.1,0,0.2C264.2,87.4,264.3,87.7,264.4,87.8L264.4,87.8
			L264.4,87.8z M264.4,71.2c-0.2-0.1-0.5-0.3-0.7-0.5c-0.1,0-0.1-0.1-0.1-0.2c0,0,0,0,0-0.1c0.1,0,0.3,0.1,0.4,0.2
			c0.2,0.1,0.5,0.3,0.7,0.3c0.2,0.1,0.5,0.2,0.8,0.2c0.1,0,0.2,0,0.2-0.1c0.1-0.1,0.2-0.1,0.2-0.2c0,0,0,0,0-0.1
			c0-0.1-0.1-0.3-0.2-0.3c-0.2-0.1-0.5-0.2-0.8-0.3h0c0,0,0,0,0.1-0.1c0.1,0,0.1,0,0.2,0c0.4,0.1,0.8,0.3,1.2,0.5
			c0.1,0.1,0.2,0.2,0.3,0.4l-0.3,0.6l-0.6,0l-0.6,0h-0.2C264.9,71.5,264.7,71.4,264.4,71.2L264.4,71.2L264.4,71.2z M269.8,71.8
			l-0.1,0.4l-2.4-0.8l0.1-0.2L269.8,71.8z M267.3,70.6c0.1-0.1,0.2-0.2,0.3-0.3v0.4L267.3,70.6z M267.6,64.3h-1v-1.8
			c0.2,0,0.4,0.1,0.6,0.3c0.2,0.1,0.3,0.4,0.3,0.6L267.6,64.3z M269.2,67.4v3.7l-1-0.3v-7.4c0-0.2,0.1-0.5,0.3-0.6
			c0.2-0.1,0.4-0.2,0.6-0.3v2.8c-0.1,0.1-0.2,0.1-0.3,0.2c-0.2,0.2-0.3,0.5-0.3,0.8C268.6,66.7,268.8,67.1,269.2,67.4L269.2,67.4
			L269.2,67.4z M270.1,65L270.1,65L270.1,65c-0.1,0.1-0.2,0.1-0.3,0.1h-0.1v-0.3C269.9,64.8,270,64.9,270.1,65L270.1,65L270.1,65z
			 M269.7,64.2v-1.7c0.3,0,0.6,0.2,0.9,0.4l-0.1,0.1c-0.1,0.1-0.2,0.2-0.3,0.3C270,63.6,269.9,63.9,269.7,64.2L269.7,64.2
			L269.7,64.2z M269.9,65.6c0.1,0,0.1,0,0.2,0c0.2,0,0.3,0.1,0.4,0.2c0.2,0.2,0.4,0.3,0.7,0.3h0.1c0.3,0,0.6-0.2,0.9-0.4
			c0.1,0.1,0.3,0.2,0.4,0.2c-0.6,1.1-1.3,1.3-1.9,1.3h-0.2c0.1-0.1,0.1-0.2,0.2-0.3l-0.4-0.4c-0.2,0.2-0.3,0.4-0.5,0.6
			c-0.1,0-0.2-0.1-0.3-0.1l0.1-0.1c0.1-0.2,0.3-0.4,0.4-0.5l-0.4-0.4c-0.2,0.2-0.3,0.4-0.5,0.6c-0.1-0.1-0.1-0.2-0.1-0.3
			c0-0.1,0-0.3,0.1-0.4C269.5,65.8,269.7,65.7,269.9,65.6L269.9,65.6L269.9,65.6z M274.3,63.6c0.2,0.1,0.3,0.3,0.4,0.5
			c0.1,0.3,0.2,0.6,0.2,0.9c0,0.1,0,0.2,0,0.2c-0.1-0.2-0.2-0.4-0.3-0.6l-0.5,0.2c0.1,0.3,0.3,0.6,0.5,0.9c-0.1,0-0.1,0.1-0.2,0.1
			c-0.2-0.3-0.4-0.6-0.5-0.9l-0.6,0.2c0.1,0.3,0.2,0.5,0.4,0.8c-0.1,0-0.2-0.1-0.3-0.1c-0.1,0-0.1-0.1-0.2-0.1l0,0l-0.1-0.1h-0.2
			c-0.2,0-0.4-0.1-0.5-0.4c0,0,0-0.1,0-0.1c0-0.2,0.2-0.5,0.4-0.8l0.1-0.2l-0.2-0.1c-0.3-0.1-0.5-0.2-0.8-0.4
			c-0.3-0.1-0.4-0.4-0.4-0.7c0,0,0,0,0,0c0-0.1,0.1-0.2,0.2-0.2c0.2-0.1,0.4-0.2,0.6-0.3c0.2-0.1,0.5-0.1,0.7-0.1
			c0.4,0,0.8,0.1,1.1,0.4c0.1,0.1,0.2,0.3,0.2,0.5c0,0.2,0,0.3-0.1,0.4l0,0.2L274.3,63.6L274.3,63.6z M274.8,62.7
			c0.2-0.1,0.4-0.2,0.6-0.2v1.7c0-0.1-0.1-0.3-0.2-0.4c-0.1-0.2-0.3-0.4-0.4-0.6c0-0.1,0-0.2,0-0.4
			C274.8,62.8,274.8,62.8,274.8,62.7L274.8,62.7L274.8,62.7z M269.3,84.7v0.6c0,0.3,0,0.7,0.1,1v0.1l-0.2-0.1l-1.4-5.5l0.6-0.2
			l0.4,1.2C269.1,82.7,269.3,83.7,269.3,84.7L269.3,84.7z M268.9,80.4l0.3-0.1v0.9L268.9,80.4L268.9,80.4z M266.6,81.3l0.6-0.2
			l1.3,4.9l-0.3-0.1C268.3,85.8,266.6,81.3,266.6,81.3z M267.7,85.9c-0.3,0.2-0.7,0.5-1,0.7v-3.5L267.7,85.9z M266,81.3l0.1,0.2v5.3
			c-0.3,0.1-0.6,0.1-0.8,0.1h-0.1V72.2c0.2,0,0.5,0,0.8,0.1h0.2v6.2c-0.4,0.4-0.7,0.9-0.7,1.5C265.4,80.5,265.6,81,266,81.3
			L266,81.3L266,81.3z M265.9,80C265.9,80,265.9,80,265.9,80c0-0.3,0.1-0.5,0.2-0.7l0.5,0.4L265.9,80L265.9,80z M267.7,79.9l-1.3-1
			c0.1-0.1,0.2-0.2,0.3-0.3c0.3,0.2,0.8,0.7,1.1,1c0.1,0.1,0.3,0.3,0.3,0.5h0l-1.8,0.7c-0.1-0.1-0.1-0.1-0.2-0.2L267.7,79.9
			L267.7,79.9z M268.2,77.4c0.5-0.4,1-0.8,1.6-1l0.3-0.2l-0.1,0.4l-2.6,1.8l-0.2-0.2L268.2,77.4L268.2,77.4z M268.2,76.7v-3.5l1,0.4
			v2.5C268.8,76.2,268.5,76.5,268.2,76.7L268.2,76.7z M273.7,66.9l0.2,0.3l0,0l-2.2,0.7c0-0.1,0-0.1-0.1-0.2L273.7,66.9z
			 M272.9,66.7c0.1-0.2,0.2-0.3,0.3-0.5c0.1,0,0.1,0.1,0.2,0.1l0.1,0.1L272.9,66.7L272.9,66.7z M273,72.5l0.6-0.4l0.1,0.1l0.2-0.2
			c0,0,0.1-0.1,0.3-0.3c-0.1,0.3-0.2,0.5-0.2,0.7L273,72.5L273,72.5z M273.8,73c-0.1,0.2-0.1,0.3-0.1,0.4l-2.1,0.2l0-0.1l0.4-0.3
			C272.1,73.2,273.8,73,273.8,73z M271.5,73l-0.3-0.4l1.4-1.2l0.6,0.5L271.5,73z M273.9,74c0,0.1,0.1,0.2,0.2,0.3s0.1,0.2,0.2,0.3
			l-3.3,0.3l0.1-0.6L273.9,74z M274.4,75.1L274.4,75.1c0,0.1,0,0.2,0,0.3l-3.7,0.4l0-0.3L274.4,75.1L274.4,75.1z M274.5,76l0,0.3
			l-0.4,0l-3.5,0.3l0-0.3L274.5,76L274.5,76z M274.4,78.1c0.2-0.6,0.3-1,0.3-1.3h0.4l0-0.3c0,0-0.1-0.8-0.2-1.4
			c-0.1-0.6-0.4-1.1-0.7-1.6c0-0.1,0-0.2,0.1-0.3c0.1-0.3,0.3-0.8,0.5-1.6c0.2-0.5,0.3-1,0.4-1.6c0-0.3,0.1-0.6,0.1-0.8v13.5
			c-0.2-0.1-0.4-0.2-0.6-0.3l-0.4-0.2L274.4,78.1L274.4,78.1z M275.2,67.8c-0.2-0.3-0.5-0.6-0.8-0.9l-0.3-0.5c0.3,0,0.6-0.1,0.8-0.3
			c0.2-0.1,0.4-0.3,0.5-0.6v2.7C275.3,68.1,275.3,67.9,275.2,67.8L275.2,67.8L275.2,67.8z M274.4,67.8c0.1,0.1,0.2,0.2,0.3,0.4
			c0,0.1,0.1,0.1,0.1,0.2v0.4c0,0.4,0,0.8-0.1,1.2c-0.1,0.4-0.4,0.8-0.7,1.2c-0.1,0.2-0.3,0.3-0.4,0.4l-1.9-1.6l0.8-1.6L274.4,67.8
			L274.4,67.8z M271.8,68.6l-0.7,1.5l0.1,0.1l-0.2,0.2c0-0.1-0.1-0.3-0.1-0.4c0-0.1,0-0.2,0-0.3c0-0.2,0-0.3,0.1-0.4
			c0.1-0.1,0.3-0.3,0.5-0.6L271.8,68.6L271.8,68.6z M271.6,70.5l0.5,0.4l-1.3,1.1l-0.3-0.4L271.6,70.5L271.6,70.5z M270.7,68.7
			l-0.1,0.2c-0.2,0.2-0.3,0.5-0.3,0.8c0,0.1,0,0.3,0,0.4c0,0.2,0.1,0.6,0.2,0.7l-0.5,0.5l-0.3-0.1v-3.5c0.1,0,0.2,0.1,0.3,0.1
			c0.2,0,0.4,0.1,0.7,0.1L270.7,68.7L270.7,68.7z M270.3,72.2l0.8,1.1c-0.1,0.2-0.2,0.3-0.4,0.3h-0.1c-0.2,0-0.4-0.1-0.6-0.2
			c0,0-0.1-0.1-0.1-0.1L270.3,72.2L270.3,72.2z M270.4,74.2l-0.2,1.3c-0.1,0-0.3,0.1-0.5,0.2V74C269.9,74.1,270.1,74.2,270.4,74.2
			L270.4,74.2z M268.2,79.1l-0.3-0.2l2.3-1.6h0.1l-0.1,0.6L268.2,79.1L268.2,79.1z M270.2,80.5l0.3-1.3l0.4-2.1l0.7-0.1l-1.1,4.4
			l-0.4,0C270,81.4,270.2,80.5,270.2,80.5z M272.1,77l0.8-0.1l-1.5,4.6l-0.4,0L272.1,77L272.1,77z M273.5,76.9l0.7-0.1
			c0,0.1,0,0.1-0.1,0.2c-0.1,0.4-0.3,1-0.5,1.8c-0.3,0.7-0.5,1.4-0.9,2.1c-0.2,0.3-0.3,0.6-0.4,0.8l-0.4,0L273.5,76.9L273.5,76.9z
			 M273.8,79.7V82c-0.3-0.1-0.5-0.2-0.8-0.2h-0.1C273.1,81.3,273.5,80.6,273.8,79.7L273.8,79.7L273.8,79.7z M272.6,82.3l0.3,0
			c0.6,0.1,1.1,0.3,1.6,0.6c0.5,0.3,0.9,0.5,1.1,0.6s0.6,0.2,1,0.4l-0.3,0.2l-4-1.4L272.6,82.3L272.6,82.3z M269.5,72.7l-0.1,0.3
			l-2.4-1l0.1-0.2L269.5,72.7z M267.6,73v4.2c-0.4,0.3-0.7,0.6-1,0.8v-5.4L267.6,73L267.6,73z M265.2,87.4c0.5,0,1-0.1,1.5-0.3
			c0.5-0.2,0.9-0.5,1.3-0.8l1.4,0.8v0c0,0.1,0,0.2-0.1,0.3c-0.1,0-0.4-0.1-0.8-0.1h-0.3c-1,0.1-1.3,0.2-1.9,0.2h-0.2
			c-0.8,0-1.1-0.1-1.2-0.3c0,0,0,0-0.1-0.1C264.9,87.4,265.1,87.4,265.2,87.4L265.2,87.4L265.2,87.4z M269.4,79.5
			c-0.2,0.1-0.4,0.2-0.7,0.3h0c-0.1-0.1-0.1-0.2-0.2-0.3l1.4-0.9l-0.1,0.5C269.8,79.3,269.6,79.4,269.4,79.5L269.4,79.5L269.4,79.5z
			 M269.9,82.9l0.7,0.1l-0.1,0.4c-0.1,0-0.2-0.1-0.3-0.1C270.1,83.2,270,83.1,269.9,82.9L269.9,82.9L269.9,82.9z M272.3,84.4v3.4h-1
			v-3.7L272.3,84.4z M275.3,85.2l-0.6,1.3c-0.1,0-0.2,0.1-0.3,0.1V85L275.3,85.2L275.3,85.2z M276.9,83.4c-0.4-0.1-0.8-0.3-1-0.4
			V62.5c0.2,0,0.4,0.1,0.6,0.3c0.2,0.1,0.3,0.4,0.3,0.6L276.9,83.4z M275.6,61.9c-0.4,0-0.7,0.1-1,0.3c-0.1-0.1-0.1-0.1-0.2-0.2
			l-0.1,0c0.1-1.3-0.1-2.6-0.5-3.9c0-0.1-0.1-0.3-0.2-0.4c0.5,0.3,0.9,0.7,1.3,1.2c0.9,1,1.5,2.1,1.8,3.4
			C276.5,62,276.1,61.9,275.6,61.9L275.6,61.9L275.6,61.9z M273.8,61.6c-0.3-0.1-0.6-0.1-0.8-0.1c-0.3,0-0.6,0-0.9,0.1
			c-0.3,0.1-0.6,0.2-0.8,0.4v-5.2c0.2,0,0.3,0,0.5,0.1l0.1,0c0.7,0.2,1.3,0.8,1.5,1.5C273.7,59.3,273.8,60.5,273.8,61.6L273.8,61.6
			L273.8,61.6z M271.5,63.8c0.2,0.1,0.4,0.2,0.6,0.3c-0.2,0.2-0.3,0.5-0.3,0.8c0,0.1,0,0.2,0,0.2v0.1c-0.1,0.2-0.4,0.4-0.6,0.4h0
			c-0.2,0-0.3-0.1-0.4-0.2c-0.1-0.1-0.1-0.1-0.2-0.1c0-0.1,0-0.2,0.1-0.4c0-0.1,0-0.2-0.2-0.3l-0.3-0.1c0.2-0.2,0.2-0.5,0.4-0.6v0.5
			c0,0,0.1,0.1,0.4,0.1c0.1,0,0.3,0,0.4-0.1c0-0.1-0.1-0.2-0.2-0.3c-0.2-0.1-0.3-0.2-0.5-0.3c0,0,0.1-0.1,0.1-0.2
			c0-0.1,0.1-0.1,0.2-0.1c0.1,0,0.1-0.1,0.2-0.1C271.2,63.5,271.4,63.7,271.5,63.8L271.5,63.8L271.5,63.8z M269.5,61.9
			c-0.4,0-0.9,0.1-1.3,0.4c0-1.2,0.1-2.4,0.4-3.6c0.4-1.2,0.9-1.9,2.1-2v5.6C270.3,62,269.9,61.9,269.5,61.9
			C269.5,61.9,269.5,61.9,269.5,61.9z M268,58.5c-0.3,1.2-0.4,2.5-0.4,3.8c-0.4-0.3-0.8-0.4-1.3-0.4c-0.4,0-0.8,0.1-1.2,0.3
			c0.3-1.3,0.9-2.4,1.7-3.4c0.4-0.5,1-1,1.5-1.4C268.3,57.8,268.1,58.2,268,58.5L268,58.5L268,58.5z M265.4,62.8
			c0.2-0.1,0.4-0.2,0.6-0.3v1.8h-1v-0.9C265.1,63.2,265.2,62.9,265.4,62.8C265.4,62.8,265.4,62.8,265.4,62.8z M278.9,87.8V62.5
			c0.2,0,0.4,0.1,0.5,0.2c0.1,0.1,0.2,0.3,0.2,0.4v24.6L278.9,87.8L278.9,87.8z M278.7,59c-0.2-0.4-0.5-0.8-0.8-1.1v-2h-0.6v1.4
			c-0.4-0.4-0.9-0.8-1.4-1.1l1.7-2.6l2,3.1v4.2C279.4,60.3,279.1,59.6,278.7,59L278.7,59L278.7,59z M277.9,53v-6.3
			c0-0.4,0.4-0.7,0.8-0.7c0.2,0,0.5,0.1,0.7,0.2c0.1,0.1,0.2,0.3,0.3,0.5v9L277.9,53L277.9,53z M279.6,45.7
			c-0.3-0.2-0.6-0.3-0.9-0.3c-0.4,0-0.8,0.2-1.1,0.5c-0.2-0.3-0.6-0.5-1-0.5c-0.3,0-0.5,0.1-0.7,0.2l1.9-5.2L279.6,45.7z
			 M278.1,39.7V24.9c0.6,0.6,1.1,1.3,1.6,1.9v17.3L278.1,39.7L278.1,39.7z M277.5,39.6l-1.6,4.4V22.6c0.5,0.5,1.1,1.1,1.6,1.6V39.6z
			 M276.6,46.1c0.4,0,0.7,0.3,0.7,0.7V53l-1.5,2.2v-8.6C275.9,46.3,276.2,46,276.6,46.1L276.6,46.1L276.6,46.1z M264.6,46.8
			c0-0.4,0.3-0.7,0.7-0.7c0,0,0,0,0,0c0.2,0,0.4,0.1,0.6,0.2c0.2,0.1,0.2,0.3,0.2,0.5v8.7l-1.5-2.4L264.6,46.8L264.6,46.8
			L264.6,46.8z M266.1,44.2l-1.6-4.5V14.9c0.5,0.3,1.1,0.5,1.6,0.8V44.2L266.1,44.2z M266.1,45.7c-0.2-0.1-0.5-0.2-0.8-0.2
			c-0.4,0-0.8,0.2-1,0.5c-0.3-0.3-0.7-0.5-1.1-0.5c-0.3,0-0.6,0.1-0.8,0.2l1.9-5.1L266.1,45.7L266.1,45.7z M264,39.7l-1.6,4.5V13.9
			c0.5,0.2,1.1,0.4,1.6,0.7V39.7L264,39.7z M262.6,46.3c0.2-0.1,0.4-0.2,0.6-0.2c0.4,0,0.8,0.3,0.8,0.7V53l-1.7,2.6v-8.9
			C262.4,46.5,262.4,46.4,262.6,46.3C262.6,46.3,262.6,46.3,262.6,46.3z M264.3,53.7l1.7,2.6c-0.5,0.3-1,0.6-1.4,1V56H264v1.9
			c-0.3,0.3-0.6,0.7-0.8,1.1c-0.4,0.6-0.7,1.2-0.9,1.9v-4.2C262.3,56.6,264.3,53.7,264.3,53.7z M262.3,63.5c0-0.2,0.1-0.5,0.3-0.6
			c0.1-0.1,0.3-0.2,0.4-0.2v19.2l-0.7-1.3V63.5L262.3,63.5L262.3,63.5z M262.8,83v5.1l-0.7,0.6v-6.9L262.8,83L262.8,83z M283.3,88
			c-0.8,0.8-1.5,1.5-2.3,2.2V76.6c10.6-14.6,10.6-34.4,0-49v-1.9l-0.7-1.1l-0.6,1.1v0.2c-1.2-1.4-2.4-2.8-3.8-4.1v-1l-0.9-1.2v1.4
			c-2.4-2.2-5.1-4-8-5.6v-0.7l-0.9-1.3V15c-1.2-0.6-2.5-1.2-3.8-1.7v-2l-0.6-1.1l-0.7,1.1v1.5c-1.9-0.7-3.8-1.2-5.8-1.5V4.4
			l-0.4-0.6l-0.4,0.6v6.8c-0.4-0.1-0.9-0.1-1.3-0.2V1.6c27.8,3.1,47.9,28.2,44.8,56C296.6,69.1,291.4,79.8,283.3,88L283.3,88
			L283.3,88z M283.2,48.2v-0.5h-0.6v0.5h-0.5v0.6h0.5v1.1l-1.7,2.6v-9.8l3.9,5.6v4.1l-1.7-2.5v-1.1h0.5v-0.6L283.2,48.2L283.2,48.2z
			 M282.9,50.5l1.9,3v1.4c-0.3-0.2-0.6-0.3-0.9-0.3c-0.4,0-0.8,0.2-1.1,0.5c-0.3-0.3-0.7-0.5-1.1-0.5c-0.3,0-0.6,0.1-0.9,0.3v-1.3
			L282.9,50.5L282.9,50.5z M284.3,60.6c0-0.5-0.3-1-0.8-1.2h1.3v2.5h-1.3C284,61.6,284.3,61.1,284.3,60.6L284.3,60.6L284.3,60.6z
			 M282.9,61.7c-0.6,0-1.1-0.5-1.1-1.1c0-0.6,0.5-1.1,1.1-1.1s1.1,0.5,1.1,1.1c0,0,0,0,0,0C284,61.2,283.6,61.7,282.9,61.7
			L282.9,61.7L282.9,61.7z M283.2,58.5v-2.7c0-0.4,0.4-0.7,0.8-0.7c0.2,0,0.4,0.1,0.6,0.2c0.1,0.1,0.2,0.3,0.2,0.4v2.7L283.2,58.5
			L283.2,58.5z M281.2,55.4c0.2-0.1,0.4-0.2,0.6-0.2c0.4,0,0.8,0.3,0.8,0.7v2.7h-1.7v-2.7C281,55.6,281.1,55.5,281.2,55.4
			L281.2,55.4z M282.3,59.4c-0.7,0.3-1,1.2-0.6,1.9c0.1,0.3,0.4,0.5,0.6,0.6H281v-2.5H282.3z M285.7,62.7V40.6l-0.4-0.7l-0.4,0.7
			v6.7l-3.9-5.6V28.6c9.9,14.1,9.9,32.9,0,47V62.7C280.9,62.7,285.7,62.7,285.7,62.7z M283.5,53l-0.6-0.9l-0.6,0.9l0.6,0.9L283.5,53
			z M265.2,9l0.5,0.2l0.2-0.5l0.5,0.2l0.2-0.5l-0.5-0.2l0.2-0.5l-0.5-0.3l-0.2,0.5l-0.5-0.2L265,8.2l0.5,0.2L265.2,9L265.2,9z
			 M265.1,10.5l-0.5-0.2l-0.2,0.5l-0.5-0.2l-0.2,0.5l0.5,0.2l-0.2,0.5l0.5,0.2l0.2-0.5l0.5,0.2l0.2-0.5l-0.5-0.2L265.1,10.5z
			 M286.7,24.7L286.7,24.7l0-0.9l-0.9-0.1h0V24l-2.9,2.3l-0.1-0.1l-0.1-0.8l2.6-2c0.2-0.2,0.3-0.1,0.3-0.1l0,0v-1l-0.9-0.1h0
			c0.1,0.1,0.1,0.3,0.1,0.5l-2.7,2.1c-0.1,0.1-0.2,0.1-0.3,0l0,0l0.2,1.3c0.6,0.2,1.2,0.4,1.8,0.6l2.6-2
			C286.4,24.7,286.5,24.6,286.7,24.7L286.7,24.7L286.7,24.7z M272,14.2l-0.5-0.3l-0.3,0.5l-0.5-0.3l-0.3,0.5l0.5,0.3l-0.3,0.5
			l0.5,0.3l0.3-0.5l0.5,0.3l0.3-0.5l-0.5-0.3L272,14.2L272,14.2z M253.4,31.7l0.6,0.9l0.6-0.9l-0.6-0.9L253.4,31.7z M270.5,12.4
			L270.5,12.4l-0.9-1l1.9-0.7l-0.1-0.2l-0.3,0.1c-0.3-0.4-0.5-0.8-0.7-1.2c-0.7-0.1-1.4-0.2-2.1-0.3l-0.6,1.3
			c-0.1,0.1-0.2,0.2-0.3,0.2v0l1,1.2l-2.4,1l0.1,0.1l0.5-0.2c0.4,0.3,0.7,0.7,1,1.2c0.7,0,1.5,0.1,2.2,0.2l0.7-1.4
			C270.3,12.4,270.4,12.4,270.5,12.4L270.5,12.4L270.5,12.4z M268.3,13.6h-0.2c-0.3-0.4-0.7-0.9-1.1-1.3l1.6-0.6l0.4,0.4L268.3,13.6
			L268.3,13.6z M269,11.4l-0.4-0.5l0.7-1.3h0.1c0.3,0.5,0.6,0.9,0.9,1.3L269,11.4L269,11.4z M281.8,19L281.8,19l-0.2-1.2l-0.9-0.1
			l-0.2-1c-0.3,0-0.6,0-1,0l0,0c0.1,0.1,0.3,0.4,0.2,0.5l-2.4,2.5c-0.1,0.1-0.2,0.1-0.3,0.1l0,0l0.1,0.9h0.9l-0.1-0.4l2.4-2.5l0.4,0
			l0.1,0.5l-2.3,2.4c-0.2,0.2-0.3,0.1-0.3,0.1l0,0l0.2,1l0.9,0l0,0c-0.1-0.1-0.2-0.3-0.2-0.4l2.3-2.4C281.6,19,281.7,19,281.8,19
			L281.8,19L281.8,19z M283.4,21.2c0.1-0.1,0.2-0.1,0.3-0.1l0,0l0-1.1c-0.3,0-0.6,0-1-0.1l0,0c0,0,0.3,0.3,0.1,0.5l-2.5,2.2
			c-0.2,0.2-0.3,0.1-0.3,0.1l0,0l0.1,1l0.9,0h0c-0.1-0.1-0.2-0.3-0.2-0.5L283.4,21.2L283.4,21.2z M276.2,18.6c0,0,2-2.6,2.1-2.7
			c0.1-0.1,0.2-0.1,0.3-0.1v0l-0.2-0.9l-0.9,0.1v0l0.1,0.3l-2.1,2.7h-0.4l-0.2-0.5l2-2.6c0.2-0.2,0.3-0.1,0.3-0.1l0,0l-0.3-1
			l-0.9,0.1v0c0.1,0.1,0.2,0.3,0.2,0.4l-2.1,2.7c-0.1,0.1-0.2,0.1-0.3,0.1l0,0l0.4,1.1l0.9,0l0.3,1c0.3-0.1,0.6-0.1,1-0.1v0
			C276.3,18.9,276.1,18.7,276.2,18.6L276.2,18.6L276.2,18.6z M238.1,100.8l1-0.8v-0.4c-0.4,0.2-0.8,0.3-1.1,0.5
			C238,100.4,238.1,100.6,238.1,100.8L238.1,100.8z M285.4,19.5h-1.2c0,0-0.2,0.2-0.2,0.3c0.4,0.1,0.8,0.2,1.2,0.3
			C285.3,19.9,285.4,19.7,285.4,19.5L285.4,19.5L285.4,19.5z M244.4,7.5l-0.6-0.9l-0.6,0.9l0.6,0.9L244.4,7.5z M242.6,15.3l-0.6-0.9
			l-0.5,0.9l0.6,0.9L242.6,15.3z M212.1,61.4v-0.5h0.5v-0.6h-0.5v-0.5h-0.6v0.5h-0.5v0.6h0.5v0.5H212.1z M249.7,15.3l-0.6-0.9
			l-0.6,0.9l0.6,0.9C249.1,16.2,249.7,15.3,249.7,15.3z M248,5.9l-0.6-0.9l-0.6,0.9l0.6,0.9L248,5.9z M211.3,53l0.6,0.9l0.6-0.9
			l-0.6-0.9L211.3,53z M251.5,7.6L251,6.7l-0.6,0.9l0.6,0.9L251.5,7.6L251.5,7.6z M214.4,20.1L214.4,20.1l1.2-0.3l0.3,1.9
			c0.4-0.2,0.8-0.3,1.3-0.4c0.1-0.6,0.3-1.1,0.6-1.6l-1.1-1.2c-0.1-0.1-0.1-0.2-0.1-0.3l0,0l-1,0.3l-0.2-1.6
			c-0.4,0.1-0.9,0.2-1.3,0.2c-0.2,0.5-0.4,1.1-0.7,1.6l1,1C214.4,19.9,214.4,20,214.4,20.1L214.4,20.1L214.4,20.1z M216.1,19.3
			l1.1,1.2l0,0.1c-0.4,0.1-0.9,0.2-1.3,0.3l-0.3-1.5L216.1,19.3L216.1,19.3z M214,18c0.5,0,0.9,0,1.3-0.1l0.2,1.2l-0.5,0.1L214,18
			L214,18L214,18z M219.1,15.2c-0.2,0.5-0.3,1-0.2,1.5c0.4-0.1,0.9-0.1,1.3,0v-1.5c0-0.5,0.1-1,0.4-1.4l0.3-0.4
			c0.4-0.1,0.8-0.1,1.2,0v-1.1c0-0.4,0.1-0.9,0.3-1.2h0.3c1,0,1.7,0,2.2-0.4c-0.2,0.5-0.3,1-0.3,1.5v1.4l-0.1,0.1
			c-0.3,0.2-0.6,0.4-1,0.4h-1.3c0.1,0.4,0.1,0.8,0,1.2c0.4,0,0.8,0,1.1-0.2c-0.2,0.4-0.2,0.8-0.2,1.2c0.4-0.1,0.9-0.1,1.3,0v-1.4
			c0-0.4,0-0.8,0.2-1.1c0.3-0.1,0.7-0.1,1,0v-2.4c0-0.4-0.1-1.7,0.2-2.2l0.4-0.6l-0.2-0.1l-0.1,0.2l-0.4,0.6l-0.1,0.1
			c-0.4,0.4-1,0.6-1.6,0.5h-0.9c-0.4,0-0.7-0.2-0.7-0.3h-0.2v1.3c-0.1,0-0.2,0.1-0.3,0.3c-0.3,0.2-0.6,0.4-1,0.4h-1.1
			c0.1,0.4,0.1,0.8,0,1.1c0.3,0,0.6,0,0.9-0.1c-0.1,0.2-0.1,0.4-0.1,0.7l-0.3,0.4c-0.3,0.3-0.7,0.5-1.1,0.5h-1.5
			c0.1,0.4,0.1,0.8,0,1.2C218.3,15.5,218.7,15.4,219.1,15.2L219.1,15.2L219.1,15.2z M229.7,10.4c-0.2,0.4-0.3,0.8-0.3,1.3
			c0.4-0.1,0.9-0.1,1.3,0v-1.4c0-0.4,0-0.7,0.2-1.1l0.5-0.8c0.5,0,0.9-0.1,1.3-0.3c-0.2,0.4-0.3,0.8-0.3,1.2c0.4-0.1,0.8-0.1,1.2,0
			V8.1c0-0.4,0-0.7,0.2-1.1l0.7-1.1h1.4l-0.7,0.9c-0.4,0.4-0.6,1-0.5,1.6c0.4-0.1,0.9-0.1,1.3,0V7.1c0-0.4,0-0.7,0.2-1.1
			c0.7,0.1,1.3,0.4,1.7,1l0.2-0.1l-0.7-1.2c-0.5-0.7-1.3-1-2.2-1h-3.6c0.2,0.3,0.2,0.7,0.1,1.1c-0.3,0.3-0.7,0.5-1.1,0.5h-1.5
			c0.1,0.4,0.1,0.8,0,1.2c0.9,0,1.6-0.1,2.2-0.9l0.5-0.7h2.5l-0.5,0.8c-0.3,0.3-0.7,0.5-1.1,0.5h-1.5c0.1,0.3,0.1,0.7,0,1l-0.4,0.6
			c-0.3,0.3-0.7,0.5-1.1,0.5h-1.3c0.1,0.4,0.1,0.8,0,1.2C228.9,10.6,229.3,10.6,229.7,10.4L229.7,10.4L229.7,10.4z M235.2,54.4h0.6
			V54h0.5v-0.6h-0.5V53h-0.6v0.5h-0.5V54h0.5V54.4z M236,34.9l-0.6-0.9l-0.6,0.9l0.6,0.9L236,34.9z M239.5,57.9h0.6v-0.5h0.5v-0.6
			H240v-0.5h-0.5v0.5h-0.4v0.6h0.5L239.5,57.9L239.5,57.9z M240.8,30.8l-0.6,0.9l0.6,0.9l0.6-0.9C241.4,31.7,240.8,30.8,240.8,30.8z
			 M254.7,57.9h0.6v-0.5h0.5v-0.6h-0.5v-0.5h-0.6v0.5h-0.5v0.6h0.5V57.9z M211.1,19.6c0.1-0.4,0.1-0.8,0.1-1.2
			c-0.2-0.1-0.4-0.2-0.6-0.2l0.1,1.2C210.9,19.5,211,19.6,211.1,19.6L211.1,19.6L211.1,19.6z M254.7,24.6h0.6v-0.6h0.6v-0.6h-0.6
			v-0.6h-0.6v0.6h-0.6v0.6h0.6V24.6z M253.3,15.3l-0.6-0.9l-0.6,0.9l0.6,0.9C252.7,16.2,253.3,15.3,253.3,15.3z M252.5,24.7h0.6
			v-0.6h0.6v-0.6h-0.6v-0.6h-0.6v0.6H252v0.6h0.6L252.5,24.7L252.5,24.7z M235.4,55.1c0.8,0,1.4-0.6,1.4-1.4s-0.6-1.4-1.4-1.4
			c-0.8,0-1.4,0.6-1.4,1.4C234.1,54.5,234.7,55.1,235.4,55.1L235.4,55.1z M235.4,52.6c0.6,0,1.1,0.5,1.1,1.1s-0.5,1.1-1.1,1.1
			s-1.1-0.5-1.1-1.1l0,0C234.4,53.1,234.8,52.6,235.4,52.6z M212.1,22.7L212.1,22.7l-1,0.4l-0.5-1.5c-0.4,0.2-0.9,0.3-1.3,0.4
			c-0.1,0.6-0.2,1.1-0.4,1.6l1.1,0.9c0.1,0.1,0.1,0.2,0.1,0.3l0,0l1.1-0.5l0.6,1.9c0.4-0.3,0.8-0.4,1.2-0.6c0-0.6,0.1-1.2,0.3-1.7
			l-1.2-1C212.2,22.9,212.1,22.8,212.1,22.7L212.1,22.7L212.1,22.7z M210.6,23.8l-1.2-1v-0.1c0.5-0.1,0.9-0.2,1.3-0.3l0.3,1.2
			L210.6,23.8L210.6,23.8z M213.1,24.9c-0.4,0.1-0.8,0.3-1.2,0.5l-0.5-1.5l0.4-0.2l1.3,1.1L213.1,24.9L213.1,24.9z M237.1,97.2h-1.4
			c-0.2,0-0.3-0.1-0.4-0.2c0-0.1,0-0.2,0-0.3c0-0.3-0.1-0.5-0.2-0.7c0.2,0.1,0.4,0.1,0.7,0.1h0.6c-0.1-0.2-0.2-0.4-0.1-0.6
			c0-0.2,0-0.4,0.1-0.6h-1.8c-0.3,0-0.6-0.2-0.8-0.5l0-0.1c-0.2-0.3-0.4-0.6-0.5-0.8h-2c0.3-0.1,0.6-0.4,0.8-0.7
			c0.2-0.2,0.3-0.5,0.3-0.5l-0.9-0.5c0,0-0.5,0.8-0.7,1.1c-0.2,0.4-0.6,0.6-1.1,0.6h-0.2c-0.8,0-1.5-0.3-2-0.9l-0.2,0.1l0.8,1.2
			l0.9,1.4c0.2,0.5,0.4,1.1,0.3,1.6v1.2c0.4-0.1,0.8-0.1,1.3,0v-0.7c0-0.3-0.1-0.6-0.3-0.9c0.2,0.1,0.5,0.2,0.7,0.2h0.6
			c0-0.2-0.1-0.4-0.1-0.6c0-0.2,0-0.4,0.1-0.6h-1.6c-0.4,0-0.7-0.2-1-0.5l-0.4-0.6c0.6,0.3,1.2,0.4,1.8,0.3h3.2
			c0.2,0.6,0.4,1.2,0.3,1.8v0.7c0.4-0.1,0.9-0.1,1.3,0v0c0.1,0.3,0.2,0.5,0.1,0.8v1.2c0.4-0.1,0.7-0.1,1.1,0c0-0.4,0-0.8-0.2-1.2
			c0.2,0.1,0.3,0.1,0.5,0.1h0.6c-0.1-0.2-0.1-0.3-0.1-0.5C237,97.5,237.1,97.4,237.1,97.2L237.1,97.2L237.1,97.2z M205.9,36.8
			c0.2,0.4,0,0.5-0.4,0.8l-3.1-1.1l-0.1-0.2c0.4-0.1,0.8-0.2,1.1-0.3v0c-0.2-0.2-0.4-0.5-0.5-0.8h0l-1.2,0.4l0.4,0.8l-0.8,0.5
			c0.2,0.3,0.3,0.6,0.4,0.9h0c0.1-0.2,0.2-0.4,0.3-0.4l3.1,1.1c0.1,0,0.2,0.1,0.2,0.2h0c0.3-0.3,0.7-0.7,1.1-0.9l-0.5-1.1
			C206,36.7,205.9,36.8,205.9,36.8z M215.5,22.1L215.5,22.1c-0.2,0.1-0.3,0.2-0.5,0.2l-2.5-2.3c-0.1-0.1-0.1-0.2-0.1-0.3l0,0l-1,0.2
			c0.1,0.3,0.1,0.6,0,1l0,0c0,0,0.3-0.4,0.5-0.2l2.5,2.2c0.2,0.2,0.1,0.3,0.1,0.3l0,0l1-0.2L215.5,22.1L215.5,22.1z M207.8,33
			c-0.1,0.1-0.2,0.3-0.4,0.3l-3.4-1.5c-0.1,0-0.2-0.1-0.2-0.2h0l-1.2,0.8c0.2,0.6,0.3,1.2,0.3,1.8l2.9,1.3c0.1,0,0.2,0.1,0.2,0.3h0
			l1.2-0.7l0.4,0.9l0.9-0.7L207.8,33L207.8,33L207.8,33z M206.3,34.6l-3.3-1.4v0l0.8-0.5l3,1.3l0.1,0.3L206.3,34.6L206.3,34.6z
			 M207.4,35l-0.4-0.9l1.1,0.5L207.4,35L207.4,35z M209,30.2c0.1,0.4-0.2,0.5-0.8,0.9l-1-0.6c-0.2-0.6-0.3-1.3-0.4-2h-1.7
			c0,0.6,0,1.1-0.1,1.7l2.9,1.6c0.1,0.1,0.2,0.2,0.2,0.3h0c0.5-0.3,1-0.7,1.5-0.9l-0.4-1.2L209,30.2L209,30.2z M205.3,29.5l1.5,0
			c0,0,0.1,0.6,0.3,1L205.3,29.5L205.3,29.5z M210.8,28.1l1-0.4l-0.2-1h0c-0.1,0.1-0.2,0.2-0.4,0.3l-2.8-1.8
			c-0.1-0.1-0.1-0.1-0.1-0.2l0,0l-1.1,0.5l0.1,0.9l-0.9,0.4c0.1,0.3,0.2,0.6,0.2,0.9h0c0.1-0.2,0.3-0.3,0.4-0.3l2.9,1.9
			c0.1,0.1,0.2,0.2,0.2,0.3h0l0.8-0.3l-0.2-0.9h0l-0.3,0.1l-2.9-1.9l0-0.4l0.5-0.2l2.8,1.8C210.8,27.9,210.8,28,210.8,28.1
			L210.8,28.1L210.8,28.1z M225.5,44l0.6,0.9l0.6-0.9l-0.6-0.9L225.5,44z M230.6,44.8l0.6-0.9l-0.6-0.9l-0.6,0.9L230.6,44.8z
			 M217.1,44.8l0.6-0.9l-0.6-0.9l-0.6,0.9L217.1,44.8z M203.2,40.9c-0.4-0.6-0.7-1.2-0.9-1.8h0l-1.6,0.5c0.2,0.6,0.3,1.1,0.3,1.7
			l3.2,0.8c0.1,0,0.2,0.1,0.2,0.2h0c0.4-0.5,0.8-0.9,1.2-1.3l-0.7-1l-0.2,0.1c0.2,0.3,0,0.6-0.5,1.1L203.2,40.9L203.2,40.9z
			 M201,40.3l1.4-0.4c0,0,0.3,0.5,0.5,0.9L201,40.3L201,40.3z M222.2,43.9l-0.6-0.9l-0.5,0.9l0.6,0.9L222.2,43.9z M201.8,50.4
			c-0.5-0.5-0.9-1-1.3-1.5h0l-1.5,0.9c0.3,0.5,0.5,1,0.7,1.6h3.3c0.1,0,0.2,0.1,0.3,0.2h0c0.2-0.5,0.5-1.1,0.9-1.5l-0.9-0.9
			l-0.1,0.1c0.3,0.3,0.1,0.6-0.2,1.2L201.8,50.4L201.8,50.4z M199.6,50.4l1.3-0.7c0,0,0.4,0.4,0.7,0.8L199.6,50.4L199.6,50.4z
			 M204.8,64.1l-3.1,1c-0.1,0-0.2,0-0.3,0h0l-0.3,1.1l1,0.6l-1.6,0.5l-0.4,0.9c0.3,0.1,0.6,0.3,0.9,0.4h0c-0.1-0.2-0.1-0.5,0-0.5
			l4.7-1.6c0.3-0.1,0.3,0,0.3,0h0l0.3-1l-0.8-0.4h0c0,0.2,0,0.3,0,0.5l-3.2,1.1l-0.4-0.2L202,66l3.3-1.1c0.4-0.2,0.8-0.3,1.2-0.3
			v-0.1C206.5,64.5,205.5,63.9,204.8,64.1L204.8,64.1L204.8,64.1z M198.3,48L198.3,48c0,0,0.1-0.5,0.4-0.4l4.7,0.6
			c0.3,0,0.3,0.2,0.3,0.2h0l0.7-0.8l-0.6-0.7c0,0.2-0.1,0.3-0.2,0.4l-4.8-0.6c-0.1,0-0.2-0.1-0.2-0.2h0l-0.8,0.7
			C198,47.5,198.2,47.8,198.3,48L198.3,48z M203.1,62.4c-0.6-0.3-1.2-0.7-1.7-1.1h0l-1.2,1.2c0.4,0.4,0.8,0.8,1.1,1.3l3.2-0.9
			c0.1,0,0.2,0,0.3,0.1h0c0.1-0.6,0.2-1.2,0.4-1.7l-1.1-0.6l-0.1,0.2c0.4,0.2,0.3,0.5,0.1,1.2L203.1,62.4L203.1,62.4z M200.9,63.1
			l1-1.1c0,0,0.5,0.3,0.9,0.5L200.9,63.1L200.9,63.1z M198.6,45.3c0-0.2,0.2-0.4,0.3-0.4l4.6,0.9c0.1,0,0.2,0.1,0.2,0.2h0l1-1
			l-0.7-1.7l-3.1-0.6c-0.1,0-0.2-0.1-0.2-0.2h0l-1,1l0.5,0.7l-1.3-0.2l-0.8,0.5C198.3,44.7,198.5,45,198.6,45.3L198.6,45.3
			L198.6,45.3z M200.8,43.5l3.5,0.7v0l-0.6,0.7l-3.3-0.6l-0.1-0.1L200.8,43.5L200.8,43.5z M203.2,57l0.6,0.6
			c0.2-0.2,0.5-0.4,0.6-0.6l-0.6-0.6C203.6,56.5,203.4,56.7,203.2,57L203.2,57z M199.5,60.1l0.8,0.5h0c0-0.2,0-0.3,0.1-0.5l1.5-1.2
			l3.1,1c-0.2-0.3-0.3-0.7-0.4-1c-1.7-0.5-4.7-1.5-5-1.7h0l-0.4,0.8l0.7,0.5h0c0-0.2,0.2-0.3,0.2-0.3l1.1,0.4l-1.4,1L199.5,60.1
			L199.5,60.1z M205.8,68.8c0,0.5,0,0.9,0.1,1.4c-0.5-0.4-1-0.5-1.9-0.5c0.1,0.4,0.1,0.9,0,1.3h1.2c0.6,0,1.1,0.2,1.6,0.6l0.3,0.5
			c-0.3-0.2-0.7-0.2-1.1-0.2c0.1,0.4,0.1,0.7,0,1.1h1c0.3,0,0.6,0.1,0.9,0.3v1c0,1,0.4,1.9,0.9,2.7l0.1,0.2
			c-0.5-0.4-0.9-0.3-1.8-0.3l-0.1-0.1l-1.6-2.4c-0.1-0.3-0.2-0.7-0.2-1v-1.2c-0.4,0.1-0.8,0.1-1.2,0c-0.1,0.4,0.1,0.9,0.3,1.2
			c-0.4-0.1-0.7-0.2-1.1-0.1c0.1,0.4,0.1,0.7,0,1.1h1.3c0.4,0,0.8,0.2,1,0.5l0.5,0.7c-0.4-0.4-0.9-0.4-1.7-0.4
			c0.1,0.5,0.1,0.9,0,1.4h1.4c0.4,0,0.8,0.2,1.1,0.5c0.2,0.4,0.2,0.8,0.1,1.1l1,0c1,0,1.9,0.5,2.5,1.3l0.2,0.2
			c0,0.3,0.1,0.6,0.2,0.8c-0.9-1-1.3-1-3.2-1c0.1,0.4,0.1,0.8,0,1.2h1.6c0.9,0,1.7,0.5,2.2,1.2l0.1,0.2c0.4,0.6,0.7,1.1,0.7,1.1
			l0.2-0.1c0,0-0.3-0.4-0.4-0.6c-0.3-0.4-0.3-1.7-0.3-2.3v-4.3c-0.4,0-0.8,0-1.2,0v3.5l-0.9-1.3l-0.4-0.6c-0.3-0.4-0.3-1.7-0.3-2.4
			v-0.4c0-0.3,0-1.3,0.4-1.3v-0.2H208l0-0.1l-0.8-1.2c-0.1-0.4-0.2-0.8-0.2-1.2v-1.9C206.6,68.9,206.2,68.9,205.8,68.8L205.8,68.8z
			 M200,55.3l3.2-0.3c0.1,0,0.2,0,0.3,0.1h0l0.7-1.3l-1.1-1.4l-3.5,0.3c-0.1,0-0.2,0-0.3-0.1h0c-0.5,1-1,1.8-1.7,2.8
			c0.3,0.2,0.5,0.4,0.8,0.6h0c0-0.2,0.9-1.7,0.9-1.7S200,55.3,200,55.3z M199.8,53.7l3.8-0.3l-0.4,0.8l-3.6,0.3l-0.1-0.2L199.8,53.7
			L199.8,53.7z"/>
	</g>
</g>
<g id="uuid-e27689a8-9e45-4018-8544-224d9d0f5afe">
	<rect x="187.9" class="st3" width="0.3" height="104.4"/>
	<path class="st3" d="M82.5,40.7l-1.6,0.5C80.6,40.4,80,40,79.2,40c-0.8,0-1.3,0.4-1.3,1s0.9,1.1,2,1.4c2.3,0.8,2.9,1.8,2.9,2.9
		c0,1.9-1.2,2.9-3.3,2.9c-1.6,0-3-0.9-3.5-2.2l1.5-0.6c0.5,1,1.1,1.5,2,1.5c1,0,1.6-0.4,1.6-1.2c0-0.8-0.8-1.2-2.3-1.8
		c-1.4-0.6-2.5-1.3-2.5-2.6c0-1.6,1.3-2.6,3-2.6C80.8,38.6,82,39.4,82.5,40.7L82.5,40.7z"/>
	<path class="st3" d="M90.8,41l-1.6,0.4c-0.3-0.9-0.9-1.4-1.7-1.4c-1.2,0-1.9,1.1-1.9,3.4c0,2.2,0.7,3.2,2,3.2
		c0.9,0,1.4-0.4,1.8-1.4l1.7,0.4c-0.6,1.6-1.8,2.5-3.5,2.5c-2.4,0-3.8-1.8-3.8-4.8s1.4-4.8,3.8-4.8C89.3,38.6,90.4,39.4,90.8,41
		L90.8,41z"/>
	<path class="st3" d="M94.4,38.7v9.4h-1.8v-9.4H94.4z"/>
	<path class="st3" d="M103,38.7v1.5h-4.4v2.2h3.2V44h-3.2v2.6h4.6v1.5h-6.4v-9.4C96.8,38.7,103,38.7,103,38.7z"/>
	<path class="st3" d="M106.5,38.7l3.7,6.4h0v-6.4h1.7v9.4h-1.7l-3.8-6.7h0v6.7h-1.7v-9.4H106.5L106.5,38.7z"/>
	<path class="st3" d="M120,38.7v1.5h-2.5v7.9h-1.8v-7.9h-2.5v-1.5H120L120,38.7z"/>
	<path class="st3" d="M123.3,38.7v9.4h-1.8v-9.4H123.3z"/>
	<path class="st3" d="M131.6,38.7v1.5h-4.2v2.2h3.1V44h-3.1v4.1h-1.8v-9.4L131.6,38.7L131.6,38.7z"/>
	<path class="st3" d="M134.8,38.7v9.4h-1.8v-9.4H134.8z"/>
	<path class="st3" d="M143.6,41l-1.6,0.4c-0.3-0.9-0.9-1.4-1.7-1.4c-1.2,0-1.9,1.1-1.9,3.4c0,2.2,0.7,3.2,2,3.2
		c0.9,0,1.4-0.4,1.8-1.4l1.7,0.4c-0.6,1.6-1.8,2.5-3.5,2.5c-2.4,0-3.8-1.8-3.8-4.8s1.4-4.8,3.8-4.8C142.1,38.6,143.1,39.4,143.6,41
		L143.6,41z"/>
	<path class="st3" d="M82.5,54.2l-1.6,0.5c-0.3-0.8-0.9-1.2-1.7-1.2c-0.8,0-1.3,0.4-1.3,1s0.9,1.1,2,1.4c2.3,0.8,2.9,1.8,2.9,2.9
		c0,1.9-1.2,2.9-3.3,2.9c-1.6,0-3-0.9-3.5-2.2l1.5-0.6c0.5,1,1.1,1.5,2,1.5c1,0,1.6-0.4,1.6-1.2c0-0.8-0.8-1.2-2.3-1.8
		c-1.4-0.6-2.5-1.3-2.5-2.6c0-1.6,1.3-2.6,3-2.6C80.8,52.1,82,52.9,82.5,54.2L82.5,54.2z"/>
	<path class="st3" d="M91.7,56.9c0,3.1-1.4,4.8-3.9,4.8s-3.9-1.7-3.9-4.8s1.4-4.8,3.9-4.8S91.7,53.8,91.7,56.9z M87.7,60.2
		c1.5,0,2.1-1.1,2.1-3.3c0-2.2-0.7-3.3-2.2-3.3c-1.4,0-2.1,1-2.1,3.4C85.6,59.2,86.3,60.2,87.7,60.2z"/>
	<path class="st3" d="M99.1,52.2v1.5h-4.2v2.2H98v1.5h-3.1v4.1h-1.8v-9.4L99.1,52.2L99.1,52.2z"/>
	<path class="st3" d="M106.3,52.2v1.5h-2.5v7.9H102v-7.9h-2.5v-1.5H106.3L106.3,52.2z"/>
	<path class="st3" d="M108.5,52.2l1.2,6.3h0l1.3-6.3h1.8l1.2,6.3h0l1.3-6.3h1.7l-2,9.4h-1.8l-1.4-6.7h0l-1.4,6.7h-1.8l-2-9.4H108.5
		L108.5,52.2z"/>
	<path class="st3" d="M122,52.2l2.7,9.4h-1.8l-0.5-2h-3l-0.6,2h-1.8l2.7-9.4H122L122,52.2z M120.9,54l-1.1,4.1h2.2L120.9,54
		C120.9,54,120.9,54,120.9,54z"/>
	<path class="st3" d="M129.6,52.2c1.8,0,3,1,3,2.8c0,1.2-0.6,2.1-1.7,2.4l2.1,4.2h-2l-1.8-3.8h-1.5v3.8h-1.8v-9.4H129.6L129.6,52.2z
		 M129,56.3c1.2,0,1.8-0.3,1.8-1.3c0-0.9-0.6-1.3-1.5-1.3h-1.7v2.7C127.6,56.3,129,56.3,129,56.3z"/>
	<path class="st3" d="M140.8,52.2v1.5h-4.4v2.2h3.2v1.5h-3.2v2.6h4.6v1.5h-6.4v-9.4C134.6,52.2,140.8,52.2,140.8,52.2z"/>
	<path class="st3" d="M82.9,68l-1.6,0.4c-0.3-0.9-0.9-1.4-1.7-1.4c-1.2,0-1.9,1.1-1.9,3.4c0,2.2,0.7,3.2,2,3.2
		c0.9,0,1.4-0.4,1.8-1.4l1.7,0.4c-0.6,1.6-1.8,2.5-3.5,2.5c-2.4,0-3.8-1.8-3.8-4.8s1.4-4.8,3.8-4.8C81.4,65.6,82.5,66.4,82.9,68
		L82.9,68z"/>
	<path class="st3" d="M90.7,65.7v1.5h-4.4v2.2h3.2V71h-3.2v2.6h4.6v1.5h-6.4v-9.4C84.5,65.7,90.7,65.7,90.7,65.7z"/>
	<path class="st3" d="M94.3,65.7l3.7,6.4h0v-6.4h1.7v9.4H98l-3.8-6.7h0v6.7h-1.7v-9.4H94.3L94.3,65.7z"/>
	<path class="st3" d="M107.7,65.7v1.5h-2.5v7.9h-1.8v-7.9H101v-1.5H107.7L107.7,65.7z"/>
	<path class="st3" d="M115.3,65.7v1.5h-4.4v2.2h3.2V71h-3.2v2.6h4.6v1.5h-6.4v-9.4C109.1,65.7,115.3,65.7,115.3,65.7z"/>
	<path class="st3" d="M120.7,65.7c1.8,0,3,1,3,2.8c0,1.2-0.6,2.1-1.7,2.4l2.1,4.2h-2l-1.8-3.8h-1.5v3.8h-1.8v-9.4H120.7z
		 M120.1,69.8c1.2,0,1.8-0.3,1.8-1.3c0-0.9-0.6-1.3-1.5-1.3h-1.7v2.7C118.7,69.8,120.1,69.8,120.1,69.8z"/>
	<rect x="68.9" y="0.1" class="st3" width="0.3" height="104.4"/>
</g>
<g id="uuid-6004d141-1b0a-466b-894d-8861a919875c">
	<path class="st4" d="M2.4,36.7c0-3.8,3.1-6.9,6.9-6.9h45c3.8,0,6.9,3.1,6.9,6.9v45c0,3.8-3.1,6.9-6.9,6.9h-45
		c-3.8,0-6.9-3.1-6.9-6.9V36.7"/>
	<path class="st5" d="M23.9,55.9c0,2.5-0.9,4.7-2.5,6.5c-4.1,0.9-8.1-0.4-10.7-2.6c-2.7-2.3-4.3-5.4-4.5-9.5
		c1.8-2.5,4.7-4.1,7.9-4.1C19.5,46.1,23.9,50.5,23.9,55.9"/>
	<path class="st1" d="M46.6,63.9c3.7-0.4,7.6,0.9,10.3,3.9c4.4,4.9,4,12.5-0.9,16.9c-2.3,2.1-5.1,3.1-8,3.1c-4.2-3-6.3-7.7-6.5-11.9
		C41.4,71.6,43,67.5,46.6,63.9"/>
	<path class="st6" d="M49.3,45.4c-0.8,1.6-2.2,2.7-3.7,3.2c-2.8-0.8-4.9-2.9-5.8-5.1c-0.9-2.3-0.8-4.8,0.4-7.4c1.9-1,4.3-1,6.3,0.1
		C49.8,37.9,51.1,42.1,49.3,45.4"/>
	<path class="st7" d="M36.8,49.9c-4.3-3.6-4.8-9.9-1.2-14.2c3.6-4.3,9.9-4.8,14.2-1.2s4.8,9.9,1.2,14.2
		C47.4,52.9,41.1,53.5,36.8,49.9L36.8,49.9z M2.4,36.7c0-3.8,3.1-6.9,6.9-6.9h45c3.8,0,6.9,3.1,6.9,6.9l0,27.8
		c-3.2-3.7-8-6.1-13.3-6.1c-9.6,0-17.4,7.8-17.4,17.4c0,5,2.1,9.5,5.5,12.7l-26.7,0c-3.8,0-6.9-3.1-6.9-6.9l0-17.4
		c0.7,1,1.5,1.9,2.5,2.7c6.1,5.1,15.2,4.3,20.3-1.8c5.1-6.1,4.3-15.2-1.8-20.3c-6.1-5.1-15.2-4.3-20.3,1.8c-0.2,0.3-0.5,0.6-0.7,0.9
		L2.4,36.7"/>
</g>
</svg>
